<svg version="1.1" id="Layer_1" xmlns="http://www.w3.org/2000/svg" xmlns:xlink="http://www.w3.org/1999/xlink" viewBox="0 0 496.2 496.2" xml:space="preserve" fill="transparent"><g id="SVGRepo_bgCarrier" stroke-width="0"></g><g id="SVGRepo_tracerCarrier" stroke-linecap="round" stroke-linejoin="round"></g><g id="SVGRepo_iconCarrier"> <path style="fill:transparent;" d="M496.2,248.1C496.2,111.1,385.1,0,248.1,0S0,111.1,0,248.1s111.1,248.1,248.1,248.1 S496.2,385.1,496.2,248.1z"></path> <path style="fill:#471F13;" d="M326.1,169.2c-10.7-2.7-4.7-10.7-4.7-10.7c6.4-9.9-1.3-12.7-1.3-12.7c-6,7-14.3,3.5-14.3,3.5 c-12.3-10.7-1.7-9.7,3.3-23.8c5.6-15.7-3.3-23.5-10.7-26.8c-7.4-3.3-14.5-1.8-23.4-13.3s0.1-14.7,4.6-28.3 c4.4-13.6-5.9-25.5-14.8-29.2c-8.8-3.7-16.5-11.7-16.7-11.9l0,0l0,0l0,0l0,0c-0.2,0.2-7.9,8.3-16.7,11.9 c-8.9,3.7-19.2,15.6-14.8,29.2s13.4,16.8,4.6,28.3c-8.9,11.5-16,10-23.4,13.3s-16.3,11.1-10.7,26.8c5,14.2,15.7,15.3,3.3,23.8 c0,0-8.3,3.5-14.3-3.5c0,0-7.7,2.9-1.3,12.7c0,0,6,8-4.7,10.7c-6.6,1.7-28.8,16.9-11.6,55.8c10,22.7,18.7,28.5,21.4,50.4 c0,0-0.3,6.1-4.2,12.2c-2.1,3.3-8.4,4.3-9.5,11.4c-0.9,6.1,11,7.5,11,7.5s-9.1,6.2-7.9,14.7c0,0,2.6,4.7,13.5,18.3 c0,0,3.5,7.3-5.1,10.3s-13.7,5.3-7.4,9.6c1.4,1,2.6,0.2,2.6,0.2c0.4,2.6,0.6,1.4,2.1,1.7c5.8,1.2,6.4,5.4,9.2,8.2 c2.8,2.9,5.8,3.3,8.2,2.9c0,0,2.2-1,1.4,1.8c0,0,1.5-0.2,7.9,0.6c6.4,0.8,11.9,7.4,10.4,11.1h2.9c0,0-2,3.3,1.5,7 c0,0,12.9,7.8,19.8-3.7c2.4-3.9,7.6-13.1,4.9-2.4c0,0-11,13.9-4.1,18.9l10.8,8.2l0,0l0,0l0,0l0,0l10.8-8.2 c6.9-4.9-4.1-18.9-4.1-18.9c-1.6-6.1,2.6-1.5,4.9,2.4c7,11.6,19.8,3.7,19.8,3.7c3.5-3.7,1.5-7,1.5-7h2.9c-1.5-3.7,4-10.3,10.4-11.1 c6.4-0.8,7.9-0.6,7.9-0.6c-0.8-2.8,1.4-1.8,1.4-1.8c2.5,0.4,5.4,0,8.2-2.9c2.8-2.9,3.3-7,9.2-8.2c1.6-0.3,1.7,0.9,2.1-1.7 c0,0,1.2,0.8,2.6-0.2c6.3-4.3,1.2-6.6-7.4-9.6s-5.1-10.3-5.1-10.3c10.8-13.6,13.5-18.3,13.5-18.3c1.2-8.4-7.9-14.7-7.9-14.7 s11.9-1.4,11-7.5c-1.1-7.1-7.4-8.1-9.5-11.4c-3.9-6.1-4.2-12.2-4.2-12.2c2.7-21.8,11.4-27.6,21.4-50.4 C354.9,186.1,332.7,170.8,326.1,169.2z"></path> <path style="fill:#603D24;" d="M317.2,172.5c-8.7-2.6-3.8-6.5-3.8-6.5c5.2-9.6-1.1-12.4-1.1-12.4c-4.9,6.9-11.7,3.5-11.7,3.5 c-16.3-13.9-5.8-13.4-1.7-27.2c4.5-15.3-2.7-22.9-8.7-26.1s-14.1-3.1-21.3-14.3c-7.2-11.2,1.2-17,4.8-30.3 c3.6-13.3-4.8-20.9-12-24.5c-7.1-3.6-13.4-11.4-13.6-11.6l0,0l0,0l0,0l0,0c-0.2,0.2-6.5,8.1-13.6,11.6c-7.2,3.6-15.7,11.2-12,24.5 c3.6,13.3,12,19,4.8,30.3c-7.2,11.2-15.3,11.1-21.3,14.3c-6,3.2-13.3,10.8-8.7,26.1c4.1,13.8,14.6,13.2-1.7,27.2 c0,0-6.8,3.4-11.7-3.5c0,0-6.3,2.8-1.1,12.4c0,0,4.9,3.8-3.8,6.5c-5.4,1.6-23.5,16.5-9.5,54.3c8.2,22.1,20.8,27.8,23,49.1 c0,0-0.3,6-3.4,11.8c-1.7,3.3-6.8,4.2-7.7,11.1c-0.8,5.9,9,7.3,9,7.3s-7.4,6.1-6.5,14.3c0,0,2.1,1.6,11,14.9c0,0,2.9,7.1-4.1,10 s-11.1,5.1-6,9.4c1.2,1,2.1,0.2,2.1,0.2c0.3,2.5,0.5,1.3,1.8,1.7c4.8,1.2,5.2,5.2,7.5,8s4.7,3.2,6.7,2.8c0,0,1.8-1,1.2,1.8 c0,0,1.2-0.2,6.4,0.6c5.2,0.8,9.7,7.2,8.5,10.8h2.4c0,0-1.6,3.2,1.2,6.8c0,0,7.2,7.6,12.9-3.6c1.9-3.8,10.6-8.8,8.5,1.7 c0,0-10.1,9.6-4.4,14.4l8.8,8l0,0l0,0l0,0l0,0l8.8-8c5.6-4.8-4.4-14.4-4.4-14.4c-2.1-10.4,6.5-5.5,8.5-1.7 c5.7,11.3,12.9,3.6,12.9,3.6c2.8-3.6,1.2-6.8,1.2-6.8h2.4c-1.2-3.6,3.2-10,8.5-10.8c5.2-0.8,6.4-0.6,6.4-0.6 c-0.6-2.8,1.2-1.8,1.2-1.8c2,0.4,4.4,0,6.7-2.8c2.3-2.8,2.7-6.8,7.5-8c1.3-0.3,1.4,0.9,1.7-1.7c0,0,1,0.8,2.1-0.2 c5.1-4.2,1-6.5-6-9.4s-4.1-10-4.1-10c8.8-13.3,11-14.9,11-14.9c1-8.2-6.5-14.3-6.5-14.3s9.7-1.4,9-7.3c-0.9-6.9-6-7.8-7.7-11.1 c-3.1-5.9-3.4-11.8-3.4-11.8c2.2-21.3,14.8-26.9,23-49.1C340.7,189,322.6,174.1,317.2,172.5z"></path> <path style="fill:#471F13;" d="M259.1,37.4c-5.7-2.9-10.6-9-10.8-9.2c0,0,0,0.2-0.1,0.5c0-0.4-0.1-0.5-0.1-0.5 c-0.1,0.2-5.1,6.3-10.8,9.2c-5.8,2.9-12.5,9-9.6,19.6s6.7,9.5,6.5,13.9h27.9c-0.2-4.4,3.6-3.3,6.5-13.9 C271.6,46.4,264.9,40.3,259.1,37.4z"></path> <linearGradient id="SVGID_1_" gradientUnits="userSpaceOnUse" x1="226.83" y1="395.8125" x2="270.23" y2="395.8125" gradientTransform="matrix(1 0 0 -1 0 498.2)"> <stop offset="0.139" style="stop-color:#694F21"></stop> <stop offset="0.97" style="stop-color:#64491B"></stop> </linearGradient> <path style="fill:url(#SVGID_1_);" d="M241.2,114c2.1,0.1,4.8,0.1,7.4,0.1c11.4,0,19.6-0.8,21.7-1.8l-0.6-1.5l-0.9-2.9h-0.1 c-2.7-8-8.6-15.2-17.3-16.6c-0.3-2-1.3-2.7-2.9-2.7s-2.5,0.3-2.9,2.7c-8.8,1.1-14.1,7.3-17.2,16.7h-0.1l-0.9,2.9l-0.5,1.4 c2.1,0.8,7.2,1.4,12.7,1.6C238.5,117.8,240.2,115.9,241.2,114z"></path> <g> <path style="fill:#CAA76B;" d="M274.2,131.2c1.2-1.5,3.3-1.7,4.8-0.5s1.5,5,2.6,3.6c1.9-2.3,1.4-5.7-1-7.6 c-2.4-1.9-5.8-1.6-7.7,0.6C271.1,129.6,273.3,132.3,274.2,131.2z"></path> <path style="fill:#CAA76B;" d="M221.8,131.2c-1.2-1.5-3.3-1.7-4.8-0.5s-1.5,5-2.6,3.6c-1.9-2.3-1.4-5.7,1-7.6 c2.4-1.9,5.8-1.6,7.7,0.6C224.9,129.6,222.7,132.3,221.8,131.2z"></path> <path style="fill:#CAA76B;" d="M251.5,91.7c-0.3-2.1-0.4-31.3-3.9-31.3c-3.8,0-1.5,28.8-2,31.3h0.7c0,0,1.1-0.2,2.4-0.2 c1.2,0,2.3,0.2,2.3,0.2L251.5,91.7z"></path> <path style="fill:#CAA76B;" d="M253,69.4c-0.3-0.4-1.9-4.1-5.4-4.1c-3.8,0-4.7,3.6-5.1,4.1H253z"></path> <path style="fill:#CAA76B;" d="M255.7,78.6c-0.5-0.6-2.1-6.2-7.3-6.2c-5.8,0-7.6,5.5-8.3,6.2H255.7z"></path> <path style="fill:#CAA76B;" d="M255.7,78.6c-0.5,0.9-1.9,9.9-7.2,9.9c-5.8,0-8.4-8.4-8.4-9.9H255.7z"></path> <ellipse style="fill:#CAA76B;" cx="247.6" cy="61.5" rx="3.4" ry="2.2"></ellipse> </g> <path style="fill:#987D50;" d="M270,111.8c-2.2,1.1-10,1.3-21.5,1.3c-11.4,0-18.3,0-21.5-1.3l1.2-3.9l40.5-0.1L270,111.8z"></path> <g> <path style="fill:#CAA76B;" d="M269.8,111.5c-2.2-10.2-9.5-20.5-21.2-20.5c-11.7,0-17.9,8.1-21.2,20.5l4.8-1.7c0,0,8-1.1,17-1.1 s16.4,1.1,16.4,1.1L269.8,111.5z"></path> <path style="fill:#CAA76B;" d="M248.6,118.5c-3.7,0-7.1,0.4-10.3,1.3c3-4.3,4.4-10.7,4.5-11l-2,0.1c-0.6,7.6-5.3,10.9-8.1,12.9 c-1.1,0.5-2.2,1.1-3.2,1.7l0,0l0,0c-12.9,7.7-20.9,23.8-25.8,45.1l10.3-4c0,0,17-2.8,36.2-2.8c19.1,0,34.7,2.8,34.7,2.8l8.8,4 C288.9,143.5,273.4,118.5,248.6,118.5z"></path> </g> <rect x="192.2" y="156" style="fill:#25261E;" width="108.7" height="122.4"></rect> <rect x="204.4" y="171.7" style="fill:#383226;" width="86.5" height="90.1"></rect> <circle style="fill:#21241C;" cx="247.6" cy="216.4" r="45.9"></circle> <radialGradient id="SVGID_2_" cx="247.6" cy="281.8" r="43.265" gradientTransform="matrix(1 0 0 -1 0 498.2)" gradientUnits="userSpaceOnUse"> <stop offset="0" style="stop-color:#D8D1B5"></stop> <stop offset="0.964" style="stop-color:#D6CB97"></stop> </radialGradient> <circle style="fill:url(#SVGID_2_);" cx="247.6" cy="216.4" r="43.2"></circle> <path style="fill:#DED6AE;" d="M243.7,215l9.6,43.7c0,0,13.5-3.6,18.8-7c5.4-3.4,11.5-12.9,11.5-12.9l-37-27.1l-0.5-38.1 c0,0-11,0.1-22.1,7.2c-11.6,7.4-14.8,16.2-14.8,16.2L243.7,215z"></path> <g> <circle style="fill:#32352C;" cx="247.6" cy="216.4" r="23.5"></circle> <circle style="fill:#32352C;" cx="247.6" cy="216.4" r="23.5"></circle> <circle style="fill:#32352C;" cx="247.6" cy="216.4" r="23.5"></circle> </g> <g> <path style="fill:#CAA76B;" d="M262,260.9h28.1v-23.3C285.8,249.8,275.1,258.9,262,260.9z"></path> <path style="fill:#CAA76B;" d="M205.1,237.7v23.2h28C220.1,258.9,209.4,249.8,205.1,237.7z"></path> </g> <polygon style="fill:#9E532E;" points="199,267.7 190.3,267.7 190.3,261.9 191.9,216.4 190.3,170.9 190.3,165.1 199,165.1 199,170.9 197.1,216.4 199,261.9 "></polygon> <g> <rect x="190.3" y="165.1" style="fill:#8A4826;" width="8.8" height="4.8"></rect> <rect x="190.3" y="262.6" style="fill:#8A4826;" width="8.8" height="4.8"></rect> </g> <g> <rect x="190.3" y="261.9" style="fill:#773D1D;" width="8.8" height="1.1"></rect> <rect x="190.3" y="169.9" style="fill:#773D1D;" width="8.8" height="1.1"></rect> </g> <polygon style="fill:#9E532E;" points="304.9,267.7 296.1,267.7 296.1,261.9 297.8,216.4 296.1,170.9 296.1,165.1 304.9,165.1 304.9,170.9 303.2,216.4 304.9,261.9 "></polygon> <g> <rect x="296.1" y="165.1" style="fill:#8A4826;" width="8.8" height="4.8"></rect> <rect x="296.1" y="262.6" style="fill:#8A4826;" width="8.8" height="4.8"></rect> </g> <g> <rect x="296.1" y="261.9" style="fill:#773D1D;" width="8.8" height="1.1"></rect> <rect x="296.1" y="169.9" style="fill:#773D1D;" width="8.8" height="1.1"></rect> </g> <radialGradient id="SVGID_3_" cx="247.65" cy="202.24" r="29.5638" gradientTransform="matrix(1 0 0 -1 0 498.2)" gradientUnits="userSpaceOnUse"> <stop offset="0" style="stop-color:#5C2E22"></stop> <stop offset="0.994" style="stop-color:#471F13"></stop> </radialGradient> <path style="fill:url(#SVGID_3_);" d="M285.5,313.6c0,0-11.4-13.6-38.7-13.6s-37,13.6-37,13.6v-35.4h75.7V313.6z"></path> <polygon style="fill:#9E532E;" points="210.1,268.6 206.2,268.6 205,287.4 205,289.8 205,292.5 206.2,313.6 210.1,313.6 211.5,292.5 211.5,289.8 211.5,287.4 "></polygon> <g> <rect x="205" y="292" style="fill:#773D1D;" width="6.5" height="0.5"></rect> <rect x="205" y="287.4" style="fill:#773D1D;" width="6.5" height="0.4"></rect> </g> <polygon style="fill:#9E532E;" points="288.9,268.6 284.9,268.6 283.6,287.4 283.6,289.8 283.6,292.5 284.9,313.6 288.9,313.6 290.1,292.5 290.1,289.8 290.1,287.4 "></polygon> <g> <rect x="283.6" y="292" style="fill:#773D1D;" width="6.5" height="0.5"></rect> <rect x="283.6" y="287.4" style="fill:#773D1D;" width="6.5" height="0.4"></rect> </g> <g> <path style="fill:#9E532E;" d="M241.6,293.7c-3.6-1.5-7.6-0.7-10,1.6c0.7-2.4,0.3-5.3-1.2-7.7c0.2-1.2,0.5-2.4,0.9-3.5 c0.1-0.2,0.2-0.4,0.3-0.7c1.2-2.3,2.5-2,3.6-1.8c0.9,0.2,2.3,2.2,2.4,4c0.1-1.3,0-2.7-0.2-3.8c1.6,0.2,3.3,0.2,5-0.2 c4.1-1,6.8-3.3,4.5-4.6c-1.4-0.8-3.7,3.1-5.9,3.8c-0.2,0.1-0.4,0.1-0.6,0.2c-1,0.2-2.1,0.2-3.1,0.1c-0.2-0.9-0.5-1.7-0.9-2.3 c-0.9-1.5-2.2-1.7-3.4-0.7c-1.3,0.9-2.9,3-4.5,3.5c-0.2,0.1-0.4,0.1-0.6,0.2c-2.1,0.5-4.6-0.1-6.4-0.7c-1.5-1.1-3.7-1.1-5.1,0 c-0.9,0.7-1.3,1.8-1.1,2.8c0.1-0.7,0.4-1.3,1-1.8c0.4-0.3,0.9-0.6,1.4-0.7c-0.2,0.1-0.3,0.2-0.5,0.4c-0.7,0.7-1,1.5-0.9,2.3 c0.1-0.5,0.3-1.1,0.8-1.5c1-1,2.7-1.1,3.8-0.5c0.1,0.1,0.2,0.1,0.2,0.2c0.2,0.2,0.3,0.3,0.5,0.5c-1.2,0.1-2.4,0.5-3.5,1.1 c-2.3,1.5-3.7,4-3.8,6.7c0.5-1.7,1.5-3.2,3.1-4.2c1.1-0.7,2.3-1,3.5-1c-0.4,0.2-0.8,0.4-1.2,0.7c-1.9,1.4-3,3.6-3,5.8 c0.4-1.4,1.2-2.7,2.5-3.7c2.7-2,6.5-1.6,8.7,0.8c0.2,0.2,0.3,0.4,0.5,0.7c2.3,3.7,1.7,8.3-1.3,10.7c0.3-0.1,0.6-0.3,0.9-0.5 c0.5-0.3,0.9-0.6,1.3-1l0,0c2.8-2.7,6.3-4.7,10.3-3.1c0.3,0.1,0.5,0.2,0.7,0.3c2.7,1.8,3.7,5.4,2.2,8.4c-0.7,1.4-1.9,2.5-3.2,3.1 c2.2-0.4,4.1-1.8,5.2-4c0.2-0.4,0.4-0.9,0.5-1.3c0.2,1.2,0.1,2.5-0.4,3.7c-0.7,1.7-2,3-3.6,3.8c2.7-0.6,5-2.3,6-4.9 C249,300.7,246.5,295.7,241.6,293.7z M222.9,282.9c-0.1-0.3-0.2-0.6-0.4-0.9c2.1,0.7,4.8,1.1,7.6,0.4c0.2,0,0.4-0.1,0.6-0.1 c-0.5,1.3-0.8,2.8-0.9,4.2C227.9,284.3,225.4,283,222.9,282.9z"></path> <path style="fill:#9E532E;" d="M248.2,305.1c1,2.6,3.3,4.3,6,4.9c-1.6-0.8-2.9-2.1-3.6-3.8c-0.5-1.2-0.6-2.4-0.4-3.7 c0.1,0.4,0.3,0.9,0.5,1.3c1.1,2.1,3,3.6,5.2,4c-1.3-0.6-2.5-1.7-3.2-3.1c-1.5-3-0.5-6.6,2.2-8.4c0.2-0.1,0.5-0.2,0.7-0.3 c4-1.6,7.6,0.4,10.3,3.1l0,0c0.4,0.4,0.8,0.7,1.3,1c0.3,0.2,0.6,0.3,0.9,0.5c-3-2.4-3.6-7-1.3-10.7c0.1-0.2,0.3-0.5,0.5-0.7 c2.2-2.4,6-2.8,8.7-0.8c1.3,0.9,2.1,2.3,2.5,3.7c-0.1-2.2-1.1-4.4-3-5.8c-0.4-0.3-0.8-0.5-1.2-0.7c1.2,0,2.4,0.4,3.5,1 c1.6,1,2.6,2.5,3.1,4.2c-0.1-2.7-1.4-5.3-3.8-6.7c-1.1-0.7-2.3-1-3.5-1.1c0.1-0.2,0.3-0.4,0.5-0.5c0.1-0.1,0.2-0.1,0.2-0.2 c1.1-0.7,2.8-0.5,3.8,0.5c0.5,0.4,0.8,1,0.8,1.5c0.1-0.8-0.2-1.7-0.9-2.3c-0.1-0.1-0.3-0.3-0.5-0.4c0.5,0.1,1,0.3,1.4,0.7 c0.6,0.5,1,1.1,1,1.8c0.1-1-0.2-2-1.1-2.8c-1.4-1.1-3.6-1.1-5.1,0c-1.8,0.5-4.3,1.2-6.4,0.7c-0.2-0.1-0.4-0.1-0.6-0.2 c-1.6-0.6-3.2-2.6-4.5-3.5c-1.2-1-2.4-0.8-3.4,0.7c-0.4,0.6-0.7,1.4-0.9,2.3c-1,0.1-2.1,0.1-3.1-0.1c-0.2-0.1-0.4-0.1-0.6-0.2 c-2.2-0.8-4.6-4.6-5.9-3.8c-2.3,1.3,0.4,3.6,4.5,4.6c1.8,0.4,3.5,0.4,5,0.2c-0.2,1.2-0.2,2.5-0.2,3.8c0.1-1.7,1.5-3.8,2.4-4 c1-0.2,2.4-0.5,3.6,1.8c0.1,0.2,0.2,0.4,0.3,0.7c0.4,1.1,0.7,2.3,0.9,3.5c-1.5,2.5-1.8,5.3-1.1,7.7c-2.5-2.3-6.4-3.1-10-1.6 C248.9,295.7,246.4,300.7,248.2,305.1z M265.8,286.4c-0.2-1.4-0.5-2.9-0.9-4.2c0.2,0,0.4,0.1,0.6,0.1c2.8,0.7,5.4,0.3,7.6-0.4 c-0.2,0.3-0.3,0.6-0.4,0.9C270,283,267.5,284.3,265.8,286.4z"></path> </g> <g> <path style="fill:#E2C340;" d="M231.5,436.5c1.2,0,2.2-1.8,2.2-4.1c0-2.3-1-4.1-2.2-4.1s-2.2,1.8-2.2,4.1S230.3,436.5,231.5,436.5z M231.5,429.4c0.9,0,1.6,1.3,1.6,3c0,1.6-0.7,3-1.6,3s-1.6-1.3-1.6-3C229.9,430.8,230.6,429.4,231.5,429.4z"></path> <path style="fill:#E2C340;" d="M231.5,425.2c1.2,0,2.2-1.8,2.2-4.1c0-2.3-1-4.1-2.2-4.1s-2.2,1.8-2.2,4.1 C229.3,423.3,230.3,425.2,231.5,425.2z M231.5,418.1c0.9,0,1.6,1.3,1.6,3c0,1.6-0.7,3-1.6,3s-1.6-1.3-1.6-3 C229.9,419.4,230.6,418.1,231.5,418.1z"></path> <path style="fill:#E2C340;" d="M231.5,430.8c1,0,1.4-1.8,1.4-4.1s-0.4-4.1-1.4-4.1s-1.4,1.8-1.4,4.1S230.4,430.8,231.5,430.8z M231.5,423.8c0.8,0,0.9,1.3,0.9,3c0,1.6-0.2,3-0.9,3c-0.8,0-0.9-1.3-0.9-3S230.7,423.8,231.5,423.8z"></path> <path style="fill:#E2C340;" d="M231.5,419.5c1,0,1.4-1.8,1.4-4.1c0-2.3-0.4-4.1-1.4-4.1s-1.4,1.8-1.4,4.1 C230,417.7,230.4,419.5,231.5,419.5z M231.5,412.4c0.8,0,0.9,1.3,0.9,3c0,1.6-0.2,3-0.9,3c-0.8,0-0.9-1.3-0.9-3 C230.6,413.8,230.7,412.4,231.5,412.4z"></path> <path style="fill:#E2C340;" d="M231.5,413.8c1.2,0,2.2-1.8,2.2-4.1c0-2.3-1-4.1-2.2-4.1s-2.2,1.8-2.2,4.1 C229.3,412,230.3,413.8,231.5,413.8z M231.5,406.8c0.9,0,1.6,1.3,1.6,3c0,1.6-0.7,3-1.6,3s-1.6-1.3-1.6-3 C229.9,408.1,230.6,406.8,231.5,406.8z"></path> <path style="fill:#E2C340;" d="M231.5,402.5c1.2,0,2.2-1.8,2.2-4.1c0-2.3-1-4.1-2.2-4.1s-2.2,1.8-2.2,4.1S230.3,402.5,231.5,402.5z M231.5,395.5c0.9,0,1.6,1.3,1.6,3c0,1.6-0.7,3-1.6,3s-1.6-1.3-1.6-3C229.9,396.8,230.6,395.5,231.5,395.5z"></path> <path style="fill:#E2C340;" d="M231.5,408.2c1,0,1.4-1.8,1.4-4.1c0-2.3-0.4-4.1-1.4-4.1s-1.4,1.8-1.4,4.1 C230,406.3,230.4,408.2,231.5,408.2z M231.5,401.1c0.8,0,0.9,1.3,0.9,3c0,1.6-0.2,3-0.9,3c-0.8,0-0.9-1.3-0.9-3 S230.7,401.1,231.5,401.1z"></path> <path style="fill:#E2C340;" d="M231.5,396.8c1,0,1.4-1.8,1.4-4.1c0-2.3-0.4-4.1-1.4-4.1s-1.4,1.8-1.4,4.1 C230,395,230.4,396.8,231.5,396.8z M231.5,389.8c0.8,0,0.9,1.3,0.9,3c0,1.6-0.2,3-0.9,3c-0.8,0-0.9-1.3-0.9-3 S230.7,389.8,231.5,389.8z"></path> <path style="fill:#E2C340;" d="M231.5,391.2c1.2,0,2.2-1.8,2.2-4.1c0-2.3-1-4.1-2.2-4.1s-2.2,1.8-2.2,4.1 C229.3,389.3,230.3,391.2,231.5,391.2z M231.5,384.1c0.9,0,1.6,1.3,1.6,3c0,1.6-0.7,3-1.6,3s-1.6-1.3-1.6-3 C229.9,385.5,230.6,384.1,231.5,384.1z"></path> <path style="fill:#E2C340;" d="M231.5,379.8c1.2,0,2.2-1.8,2.2-4.1c0-2.3-1-4.1-2.2-4.1s-2.2,1.8-2.2,4.1 C229.3,378,230.3,379.8,231.5,379.8z M231.5,372.8c0.9,0,1.6,1.3,1.6,3c0,1.6-0.7,3-1.6,3s-1.6-1.3-1.6-3 C229.9,374.1,230.6,372.8,231.5,372.8z"></path> <path style="fill:#E2C340;" d="M231.5,385.5c1,0,1.4-1.8,1.4-4.1c0-2.3-0.4-4.1-1.4-4.1s-1.4,1.8-1.4,4.1 C230,383.7,230.4,385.5,231.5,385.5z M231.5,378.5c0.8,0,0.9,1.3,0.9,3c0,1.6-0.2,3-0.9,3c-0.8,0-0.9-1.3-0.9-3 C230.6,379.8,230.7,378.5,231.5,378.5z"></path> <path style="fill:#E2C340;" d="M231.5,374.2c1,0,1.4-1.8,1.4-4.1c0-2.3-0.4-4.1-1.4-4.1s-1.4,1.8-1.4,4.1 C230,372.4,230.4,374.2,231.5,374.2z M231.5,367.1c0.8,0,0.9,1.3,0.9,3c0,1.6-0.2,3-0.9,3c-0.8,0-0.9-1.3-0.9-3 C230.6,368.5,230.7,367.1,231.5,367.1z"></path> <path style="fill:#E2C340;" d="M231.5,368.5c1.2,0,2.2-1.8,2.2-4.1c0-2.3-1-4.1-2.2-4.1s-2.2,1.8-2.2,4.1S230.3,368.5,231.5,368.5z M231.5,361.5c0.9,0,1.6,1.3,1.6,3c0,1.6-0.7,3-1.6,3s-1.6-1.3-1.6-3C229.9,362.8,230.6,361.5,231.5,361.5z"></path> <path style="fill:#E2C340;" d="M231.5,357.2c1.2,0,2.2-1.8,2.2-4.1c0-2.3-1-4.1-2.2-4.1s-2.2,1.8-2.2,4.1 C229.3,355.4,230.3,357.2,231.5,357.2z M231.5,350.1c0.9,0,1.6,1.3,1.6,3c0,1.6-0.7,3-1.6,3s-1.6-1.3-1.6-3 C229.9,351.5,230.6,350.1,231.5,350.1z"></path> <path style="fill:#E2C340;" d="M231.5,362.9c1,0,1.4-1.8,1.4-4.1c0-2.3-0.4-4.1-1.4-4.1s-1.4,1.8-1.4,4.1 C230,361,230.4,362.9,231.5,362.9z M231.5,355.8c0.8,0,0.9,1.3,0.9,3c0,1.6-0.2,3-0.9,3c-0.8,0-0.9-1.3-0.9-3 S230.7,355.8,231.5,355.8z"></path> <path style="fill:#E2C340;" d="M231.5,351.5c1,0,1.4-1.8,1.4-4.1c0-2.3-0.4-4.1-1.4-4.1s-1.4,1.8-1.4,4.1 C230,349.7,230.4,351.5,231.5,351.5z M231.5,344.5c0.8,0,0.9,1.3,0.9,3c0,1.6-0.2,3-0.9,3c-0.8,0-0.9-1.3-0.9-3 C230.6,345.8,230.7,344.5,231.5,344.5z"></path> <path style="fill:#E2C340;" d="M231.5,345.8c1.2,0,2.2-1.8,2.2-4.1c0-2.3-1-4.1-2.2-4.1s-2.2,1.8-2.2,4.1 C229.3,344,230.3,345.8,231.5,345.8z M231.5,338.8c0.9,0,1.6,1.3,1.6,3c0,1.6-0.7,3-1.6,3s-1.6-1.3-1.6-3 C229.9,340.1,230.6,338.8,231.5,338.8z"></path> <path style="fill:#E2C340;" d="M231.5,334.5c1.2,0,2.2-1.8,2.2-4.1c0-2.3-1-4.1-2.2-4.1s-2.2,1.8-2.2,4.1S230.3,334.5,231.5,334.5z M231.5,327.4c0.9,0,1.6,1.3,1.6,3c0,1.6-0.7,3-1.6,3s-1.6-1.3-1.6-3C229.9,328.8,230.6,327.4,231.5,327.4z"></path> <path style="fill:#E2C340;" d="M231.5,340.1c1,0,1.4-1.8,1.4-4.1c0-2.3-0.4-4.1-1.4-4.1s-1.4,1.8-1.4,4.1 C230,338.3,230.4,340.1,231.5,340.1z M231.5,333.1c0.8,0,0.9,1.3,0.9,3c0,1.6-0.2,3-0.9,3c-0.8,0-0.9-1.3-0.9-3 S230.7,333.1,231.5,333.1z"></path> <path style="fill:#E2C340;" d="M231.5,328.8c1,0,1.4-1.8,1.4-4.1c0-2.3-0.4-4.1-1.4-4.1s-1.4,1.8-1.4,4.1 C230,327,230.4,328.8,231.5,328.8z M231.5,321.8c0.8,0,0.9,1.3,0.9,3c0,1.6-0.2,3-0.9,3c-0.8,0-0.9-1.3-0.9-3 S230.7,321.8,231.5,321.8z"></path> <path style="fill:#E2C340;" d="M231.5,323.2c1.2,0,2.2-1.8,2.2-4.1c0-2.3-1-4.1-2.2-4.1s-2.2,1.8-2.2,4.1 C229.3,321.3,230.3,323.2,231.5,323.2z M231.5,316.1c0.9,0,1.6,1.3,1.6,3c0,1.6-0.7,3-1.6,3s-1.6-1.3-1.6-3 C229.9,317.4,230.6,316.1,231.5,316.1z"></path> <path style="fill:#E2C340;" d="M231.5,311.8c1.2,0,2.2-1.8,2.2-4.1c0-2.3-1-4.1-2.2-4.1s-2.2,1.8-2.2,4.1 C229.3,310,230.3,311.8,231.5,311.8z M231.5,304.8c0.9,0,1.6,1.3,1.6,3c0,1.6-0.7,3-1.6,3s-1.6-1.3-1.6-3 C229.9,306.1,230.6,304.8,231.5,304.8z"></path> <path style="fill:#E2C340;" d="M231.5,317.5c1,0,1.4-1.8,1.4-4.1c0-2.3-0.4-4.1-1.4-4.1s-1.4,1.8-1.4,4.1 C230,315.7,230.4,317.5,231.5,317.5z M231.5,310.4c0.8,0,0.9,1.3,0.9,3c0,1.6-0.2,3-0.9,3c-0.8,0-0.9-1.3-0.9-3 C230.6,311.8,230.7,310.4,231.5,310.4z"></path> <path style="fill:#E2C340;" d="M231.5,306.2c1,0,1.4-1.8,1.4-4.1c0-2.3-0.4-4.1-1.4-4.1s-1.4,1.8-1.4,4.1 C230,304.3,230.4,306.2,231.5,306.2z M231.5,299.1c0.8,0,0.9,1.3,0.9,3c0,1.6-0.2,3-0.9,3c-0.8,0-0.9-1.3-0.9-3 C230.6,300.5,230.7,299.1,231.5,299.1z"></path> <path style="fill:#E2C340;" d="M231.5,300.5c1.2,0,2.2-1.8,2.2-4.1c0-2.3-1-4.1-2.2-4.1s-2.2,1.8-2.2,4.1S230.3,300.5,231.5,300.5z M231.5,293.5c0.9,0,1.6,1.3,1.6,3c0,1.6-0.7,3-1.6,3s-1.6-1.3-1.6-3C229.9,294.8,230.6,293.5,231.5,293.5z"></path> <path style="fill:#E2C340;" d="M231.5,289.2c1.2,0,2.2-1.8,2.2-4.1c0-2.3-1-4.1-2.2-4.1s-2.2,1.8-2.2,4.1 C229.3,287.4,230.3,289.2,231.5,289.2z M231.5,282.1c0.9,0,1.6,1.3,1.6,3c0,1.6-0.7,3-1.6,3s-1.6-1.3-1.6-3 C229.9,283.5,230.6,282.1,231.5,282.1z"></path> <path style="fill:#E2C340;" d="M231.5,294.8c1,0,1.4-1.8,1.4-4.1c0-2.3-0.4-4.1-1.4-4.1s-1.4,1.8-1.4,4.1 C230,293,230.4,294.8,231.5,294.8z M231.5,287.8c0.8,0,0.9,1.3,0.9,3c0,1.6-0.2,3-0.9,3c-0.8,0-0.9-1.3-0.9-3 S230.7,287.8,231.5,287.8z"></path> <path style="fill:#E2C340;" d="M231.5,283.5c1,0,1.4-1.8,1.4-4.1c0-2.3-0.4-4.1-1.4-4.1s-1.4,1.8-1.4,4.1 C230,281.7,230.4,283.5,231.5,283.5z M231.5,276.5c0.8,0,0.9,1.3,0.9,3c0,1.6-0.2,3-0.9,3c-0.8,0-0.9-1.3-0.9-3 C230.6,277.8,230.7,276.5,231.5,276.5z"></path> <path style="fill:#E2C340;" d="M231.5,277.9c1.2,0,2.2-1.8,2.2-4.1c0-2.3-1-4.1-2.2-4.1s-2.2,1.8-2.2,4.1 C229.3,276,230.3,277.9,231.5,277.9z M231.5,270.8c0.9,0,1.6,1.3,1.6,3c0,1.6-0.7,3-1.6,3s-1.6-1.3-1.6-3 C229.9,272.1,230.6,270.8,231.5,270.8z"></path> <path style="fill:#E2C340;" d="M238.9,458.5l-2.9-15.6c0-1.1-1.4-2.9-2.6-2.9h-0.7v-2.4c0-0.8-0.6-1.1-1.4-1.1s-1.4,0.3-1.4,1.1 v2.4h-0.5c-1.1,0-2.6,1.8-2.6,2.9l-3.2,16.8c-2,2.2-3.2,5.2-3.2,8.5c0,6.7,5.1,12.2,11.5,12.2c6.3,0,11.5-5.5,11.5-12.2 C243.3,464.2,241.6,460.7,238.9,458.5z"></path> <path style="fill:#E2C340;" d="M265.5,397.2c1.2,0,2.2-1.8,2.2-4.1c0-2.3-1-4.1-2.2-4.1s-2.2,1.8-2.2,4.1 C263.4,395.4,264.3,397.2,265.5,397.2z M265.5,390.2c0.9,0,1.6,1.3,1.6,3s-0.7,3-1.6,3s-1.6-1.3-1.6-3S264.7,390.2,265.5,390.2z"></path> <path style="fill:#E2C340;" d="M265.5,385.9c1.2,0,2.2-1.8,2.2-4.1c0-2.3-1-4.1-2.2-4.1s-2.2,1.8-2.2,4.1 C263.4,384.1,264.3,385.9,265.5,385.9z M265.5,378.9c0.9,0,1.6,1.3,1.6,3c0,1.6-0.7,3-1.6,3s-1.6-1.3-1.6-3 C264,380.2,264.7,378.9,265.5,378.9z"></path> <path style="fill:#E2C340;" d="M265.5,391.6c1,0,1.4-1.8,1.4-4.1c0-2.3-0.4-4.1-1.4-4.1s-1.4,1.8-1.4,4.1 C264.1,389.7,264.5,391.6,265.5,391.6z M265.5,384.5c0.8,0,0.9,1.3,0.9,3c0,1.6-0.2,3-0.9,3c-0.8,0-0.9-1.3-0.9-3 C264.6,385.9,264.8,384.5,265.5,384.5z"></path> <path style="fill:#E2C340;" d="M265.5,380.2c1,0,1.4-1.8,1.4-4.1c0-2.3-0.4-4.1-1.4-4.1s-1.4,1.8-1.4,4.1 C264.1,378.4,264.5,380.2,265.5,380.2z M265.5,373.2c0.8,0,0.9,1.3,0.9,3c0,1.6-0.2,3-0.9,3c-0.8,0-0.9-1.3-0.9-3 S264.8,373.2,265.5,373.2z"></path> <path style="fill:#E2C340;" d="M265.5,374.6c1.2,0,2.2-1.8,2.2-4.1c0-2.3-1-4.1-2.2-4.1s-2.2,1.8-2.2,4.1 C263.4,372.8,264.3,374.6,265.5,374.6z M265.5,367.5c0.9,0,1.6,1.3,1.6,3c0,1.6-0.7,3-1.6,3s-1.6-1.3-1.6-3 C264,368.9,264.7,367.5,265.5,367.5z"></path> <path style="fill:#E2C340;" d="M265.5,363.3c1.2,0,2.2-1.8,2.2-4.1c0-2.3-1-4.1-2.2-4.1s-2.2,1.8-2.2,4.1 C263.4,361.4,264.3,363.3,265.5,363.3z M265.5,356.2c0.9,0,1.6,1.3,1.6,3c0,1.6-0.7,3-1.6,3s-1.6-1.3-1.6-3 C264,357.5,264.7,356.2,265.5,356.2z"></path> <path style="fill:#E2C340;" d="M265.5,368.9c1,0,1.4-1.8,1.4-4.1c0-2.3-0.4-4.1-1.4-4.1s-1.4,1.8-1.4,4.1S264.5,368.9,265.5,368.9z M265.5,361.9c0.8,0,0.9,1.3,0.9,3c0,1.6-0.2,3-0.9,3c-0.8,0-0.9-1.3-0.9-3C264.6,363.2,264.8,361.9,265.5,361.9z"></path> <path style="fill:#E2C340;" d="M265.5,357.6c1,0,1.4-1.8,1.4-4.1c0-2.3-0.4-4.1-1.4-4.1s-1.4,1.8-1.4,4.1S264.5,357.6,265.5,357.6z M265.5,350.5c0.8,0,0.9,1.3,0.9,3c0,1.6-0.2,3-0.9,3c-0.8,0-0.9-1.3-0.9-3C264.6,351.9,264.8,350.5,265.5,350.5z"></path> <path style="fill:#E2C340;" d="M265.5,351.9c1.2,0,2.2-1.8,2.2-4.1c0-2.3-1-4.1-2.2-4.1s-2.2,1.8-2.2,4.1 C263.4,350.1,264.3,351.9,265.5,351.9z M265.5,344.9c0.9,0,1.6,1.3,1.6,3c0,1.6-0.7,3-1.6,3s-1.6-1.3-1.6-3 C264,346.2,264.7,344.9,265.5,344.9z"></path> <path style="fill:#E2C340;" d="M265.5,340.6c1.2,0,2.2-1.8,2.2-4.1c0-2.3-1-4.1-2.2-4.1s-2.2,1.8-2.2,4.1 C263.4,338.8,264.3,340.6,265.5,340.6z M265.5,333.6c0.9,0,1.6,1.3,1.6,3c0,1.6-0.7,3-1.6,3s-1.6-1.3-1.6-3 C264,334.9,264.7,333.6,265.5,333.6z"></path> <path style="fill:#E2C340;" d="M265.5,346.3c1,0,1.4-1.8,1.4-4.1c0-2.2-0.4-4.1-1.4-4.1s-1.4,1.8-1.4,4.1 C264.1,344.4,264.5,346.3,265.5,346.3z M265.5,339.2c0.8,0,0.9,1.3,0.9,3c0,1.6-0.2,3-0.9,3c-0.8,0-0.9-1.3-0.9-3 S264.8,339.2,265.5,339.2z"></path> <path style="fill:#E2C340;" d="M265.5,334.9c1,0,1.4-1.8,1.4-4.1c0-2.3-0.4-4.1-1.4-4.1s-1.4,1.8-1.4,4.1S264.5,334.9,265.5,334.9z M265.5,327.9c0.8,0,0.9,1.3,0.9,3c0,1.6-0.2,3-0.9,3c-0.8,0-0.9-1.3-0.9-3C264.6,329.2,264.8,327.9,265.5,327.9z"></path> <path style="fill:#E2C340;" d="M265.5,329.3c1.2,0,2.2-1.8,2.2-4.1c0-2.3-1-4.1-2.2-4.1s-2.2,1.8-2.2,4.1 C263.4,327.4,264.3,329.3,265.5,329.3z M265.5,322.2c0.9,0,1.6,1.3,1.6,3c0,1.6-0.7,3-1.6,3s-1.6-1.3-1.6-3 C264,323.6,264.7,322.2,265.5,322.2z"></path> <path style="fill:#E2C340;" d="M265.5,317.9c1.2,0,2.2-1.8,2.2-4.1c0-2.3-1-4.1-2.2-4.1s-2.2,1.8-2.2,4.1 C263.4,316.1,264.3,317.9,265.5,317.9z M265.5,310.9c0.9,0,1.6,1.3,1.6,3c0,1.6-0.7,3-1.6,3s-1.6-1.3-1.6-3 C264,312.2,264.7,310.9,265.5,310.9z"></path> <path style="fill:#E2C340;" d="M265.5,323.6c1,0,1.4-1.8,1.4-4.1c0-2.3-0.4-4.1-1.4-4.1s-1.4,1.8-1.4,4.1S264.5,323.6,265.5,323.6z M265.5,316.6c0.8,0,0.9,1.3,0.9,3c0,1.6-0.2,3-0.9,3c-0.8,0-0.9-1.3-0.9-3S264.8,316.6,265.5,316.6z"></path> <path style="fill:#E2C340;" d="M265.5,312.3c1,0,1.4-1.8,1.4-4.1c0-2.3-0.4-4.1-1.4-4.1s-1.4,1.8-1.4,4.1 C264.1,310.5,264.5,312.3,265.5,312.3z M265.5,305.2c0.8,0,0.9,1.3,0.9,3c0,1.6-0.2,3-0.9,3c-0.8,0-0.9-1.3-0.9-3 C264.6,306.6,264.8,305.2,265.5,305.2z"></path> <path style="fill:#E2C340;" d="M265.5,306.6c1.2,0,2.2-1.8,2.2-4.1c0-2.3-1-4.1-2.2-4.1s-2.2,1.8-2.2,4.1 C263.4,304.7,264.3,306.6,265.5,306.6z M265.5,299.5c0.9,0,1.6,1.3,1.6,3s-0.7,3-1.6,3s-1.6-1.3-1.6-3S264.7,299.5,265.5,299.5z"></path> <path style="fill:#E2C340;" d="M265.5,295.2c1.2,0,2.2-1.8,2.2-4.1c0-2.3-1-4.1-2.2-4.1s-2.2,1.8-2.2,4.1 C263.4,293.4,264.3,295.2,265.5,295.2z M265.5,288.2c0.9,0,1.6,1.3,1.6,3c0,1.6-0.7,3-1.6,3s-1.6-1.3-1.6-3 C264,289.5,264.7,288.2,265.5,288.2z"></path> <path style="fill:#E2C340;" d="M265.5,300.9c1,0,1.4-1.8,1.4-4.1c0-2.3-0.4-4.1-1.4-4.1s-1.4,1.8-1.4,4.1S264.5,300.9,265.5,300.9z M265.5,293.9c0.8,0,0.9,1.3,0.9,3c0,1.6-0.2,3-0.9,3c-0.8,0-0.9-1.3-0.9-3C264.6,295.2,264.8,293.9,265.5,293.9z"></path> <path style="fill:#E2C340;" d="M265.5,289.6c1,0,1.4-1.8,1.4-4.1c0-2.3-0.4-4.1-1.4-4.1s-1.4,1.8-1.4,4.1S264.5,289.6,265.5,289.6z M265.5,282.5c0.8,0,0.9,1.3,0.9,3c0,1.6-0.2,3-0.9,3c-0.8,0-0.9-1.3-0.9-3C264.6,283.9,264.8,282.5,265.5,282.5z"></path> <path style="fill:#E2C340;" d="M265.5,283.9c1.2,0,2.2-1.8,2.2-4.1c0-2.3-1-4.1-2.2-4.1s-2.2,1.8-2.2,4.1 C263.4,282.1,264.3,283.9,265.5,283.9z M265.5,276.9c0.9,0,1.6,1.3,1.6,3c0,1.6-0.7,3-1.6,3s-1.6-1.3-1.6-3 C264,278.2,264.7,276.9,265.5,276.9z"></path> <path style="fill:#E2C340;" d="M265.5,278.2c1,0,1.4-1.8,1.4-4.1c0-2.3-0.4-4.1-1.4-4.1s-1.4,1.8-1.4,4.1 C264.1,276.4,264.5,278.2,265.5,278.2z M265.5,271.2c0.8,0,0.9,1.3,0.9,3c0,1.6-0.2,3-0.9,3c-0.8,0-0.9-1.3-0.9-3 S264.8,271.2,265.5,271.2z"></path> <path style="fill:#E2C340;" d="M272.9,419.3l-2.9-15.6c0-1.1-1.4-2.9-2.6-2.9h-0.7v-2.4c0-0.8-0.6-1.1-1.4-1.1s-1.4,0.3-1.4,1.1 v2.4h-0.5c-1.1,0-2.6,1.8-2.6,2.9l-3.2,16.8c-2,2.2-3.2,5.2-3.2,8.5c0,6.8,5.1,12.2,11.5,12.2c6.3,0,11.5-5.5,11.5-12.2 C277.4,425,275.6,421.5,272.9,419.3z"></path> </g> <polygon style="fill:#B85227;" points="306,270.7 189.2,270.7 190.3,267.8 305,267.8 "></polygon> <polygon style="fill:#9E532E;" points="306,270.7 189.2,270.7 190.3,275.6 189.2,280.2 306,280.2 305,275.6 "></polygon> <polygon style="fill:#B85227;" points="306,280.2 189.2,280.2 189.7,278.3 305.5,278.3 "></polygon> <g> <path style="fill:#CAA76B;" d="M230.6,173.1h-25.5v22.7C209.1,184.6,218.7,175.9,230.6,173.1z"></path> <path style="fill:#CAA76B;" d="M288.8,195.9v-22.8h-25.5C275.1,175.9,284.7,184.6,288.8,195.9z"></path> </g> <g> <path style="fill:#C19C00;" d="M276.4,156c0-15.7-12.7-28.5-28.5-28.5c-15.7,0-28.5,12.7-28.5,28.5h20.5c-0.7-0.5-1.5-1.6-2.3-1.9 c-0.1,0-0.2-0.1-0.3-0.1c-1.1-0.3-2.5,0.1-3.4,0.4c-0.8,0.6-2,0.6-2.8,0c-0.5-0.4-0.7-1-0.6-1.6c0,0.4,0.2,0.7,0.6,1 c0.2,0.2,0.5,0.3,0.8,0.4c-0.1-0.1-0.2-0.1-0.2-0.2c-0.4-0.4-0.6-0.9-0.5-1.3c0,0.3,0.2,0.6,0.4,0.9c0.6,0.5,1.4,0.6,2,0.3l0.1-0.1 c0.1-0.1,0.2-0.2,0.3-0.3c-0.7-0.1-1.3-0.3-1.9-0.6c-1.3-0.8-2-2.2-2-3.8c0.3,1,0.8,1.8,1.7,2.4c0.6,0.4,1.2,0.6,1.9,0.6 c-0.2-0.1-0.4-0.2-0.7-0.4c-1-0.8-1.6-2-1.6-3.2c0.2,0.8,0.7,1.5,1.4,2.1c1.5,1.1,3.5,0.9,4.7-0.4c0.1-0.1,0.2-0.2,0.2-0.4 c1.2-2.1,0.9-4.7-0.7-6c0.2,0.1,0.3,0.2,0.5,0.3c0.3,0.2,0.5,0.4,0.7,0.6l0,0c1.5,1.5,3.4,2.7,5.6,1.7c0.1-0.1,0.3-0.1,0.4-0.2 c1.5-1,2-3,1.2-4.7c-0.4-0.8-1-1.4-1.7-1.8c1.2,0.2,2.2,1,2.8,2.2c0.1,0.2,0.2,0.5,0.3,0.7c0.1-0.7,0-1.4-0.2-2.1 c-0.4-1-1.1-1.7-1.9-2.1c1.4,0.3,2.7,1.3,3.2,2.7c0.1,0.3,0.2,0.6,0.3,1c0-0.3,0.1-0.7,0.3-1c0.6-1.4,1.8-2.4,3.2-2.7 c-0.9,0.4-1.6,1.2-1.9,2.1c-0.3,0.7-0.3,1.4-0.2,2.1c0.1-0.2,0.2-0.5,0.3-0.7c0.6-1.2,1.6-2,2.8-2.2c-0.7,0.3-1.3,0.9-1.7,1.8 c-0.8,1.7-0.3,3.7,1.2,4.7c0.1,0.1,0.3,0.1,0.4,0.2c2.2,0.9,4.1-0.2,5.6-1.7l0,0c0.2-0.2,0.4-0.4,0.7-0.6c0.2-0.1,0.3-0.2,0.5-0.3 c-1.6,1.4-1.9,3.9-0.7,6c0.1,0.1,0.2,0.3,0.2,0.4c1.2,1.3,3.2,1.6,4.7,0.4c0.7-0.5,1.2-1.3,1.4-2.1c0,1.2-0.6,2.5-1.6,3.2 c-0.2,0.2-0.4,0.3-0.6,0.4c0.7,0,1.3-0.2,1.9-0.6c0.8-0.5,1.4-1.4,1.7-2.4c-0.1,1.5-0.8,3-2,3.8c-0.6,0.4-1.2,0.6-1.9,0.6 c0.1,0.1,0.2,0.2,0.2,0.3l0.1,0.1c0.6,0.4,1.5,0.3,2-0.3c0.3-0.3,0.4-0.6,0.4-0.9c0.1,0.5-0.1,0.9-0.5,1.3 c-0.1,0.1-0.2,0.1-0.3,0.2c0.3-0.1,0.6-0.2,0.8-0.4c0.3-0.3,0.5-0.6,0.6-1c0.1,0.6-0.1,1.1-0.6,1.6c-0.8,0.6-1.9,0.6-2.8,0 c-1-0.3-2.3-0.7-3.4-0.4c-0.1,0-0.2,0.1-0.3,0.1c-0.8,0.3-1.6,1.4-2.3,1.9h17.7H276.4z"></path> <path style="fill:#C19C00;" d="M256.6,146.3c-1.3,1.3-3.4,1.7-5.4,0.9c-1.8-0.8-3-2.4-3.3-4.1c-0.2,1.7-1.4,3.4-3.3,4.1 c-2,0.8-4.1,0.4-5.4-0.9c0.4,1.4,0.2,3-0.6,4.4c0.1,0.7,0.2,1.3,0.5,2c0,0.1,0.1,0.3,0.1,0.4c0.6,1.3,1.4,1.1,1.9,1 s1.3-1.2,1.3-2.2c0,0.8,0,1.5-0.1,2.1c0.8-0.1,1.8-0.1,2.7,0.1c1.5,0.4,2.6,1,2.8,1.7c0.2-0.6,1.4-1.3,2.8-1.7 c0.9-0.2,1.9-0.2,2.7-0.1c-0.1-0.7-0.1-1.4-0.1-2.1c0,1,0.8,2.1,1.3,2.2c0.6,0.1,1.3,0.3,1.9-1c0-0.1,0.1-0.2,0.1-0.4 c0.2-0.6,0.4-1.3,0.5-2C256.4,149.2,256.2,147.7,256.6,146.3z"></path> <path style="fill:#C19C00;" d="M261.5,153.8c-0.1-0.2-0.2-0.3-0.2-0.5c-1.3-0.1-2.7-0.8-3.6-2c-0.1,0.8-0.2,1.6-0.5,2.4 c0.1,0,0.2-0.1,0.3-0.1C259,153.2,260.4,153.4,261.5,153.8z"></path> <path style="fill:#C19C00;" d="M234.6,153.3c-0.1,0.2-0.1,0.3-0.2,0.5c1.2-0.4,2.6-0.6,4.1-0.2c0.1,0,0.2,0.1,0.3,0.1 c-0.2-0.8-0.4-1.6-0.5-2.4C237.3,152.5,235.9,153.2,234.6,153.3z"></path> </g> <radialGradient id="SVGID_4_" cx="247.94" cy="356.48" r="22.498" gradientTransform="matrix(1 0 0 -1 0 498.2)" gradientUnits="userSpaceOnUse"> <stop offset="0" style="stop-color:#956627"></stop> <stop offset="1" style="stop-color:#BD8D48"></stop> </radialGradient> <path style="opacity:0.76;fill:url(#SVGID_4_);enable-background:new ;" d="M253.6,154.3c-0.6-0.1-1.1-0.1-1.7,0.1 c-0.1,0-0.2,0.1-0.3,0.1c-0.6,0.2-1.3,0.9-1.8,1.5h4.6c-0.1-0.1-0.2-0.2-0.2-0.3C253.8,155.3,253.7,154.8,253.6,154.3z"></path> <radialGradient id="SVGID_5_" cx="247.94" cy="356.48" r="22.497" gradientTransform="matrix(1 0 0 -1 0 498.2)" gradientUnits="userSpaceOnUse"> <stop offset="0" style="stop-color:#956627"></stop> <stop offset="1" style="stop-color:#BD8D48"></stop> </radialGradient> <path style="opacity:0.76;fill:url(#SVGID_5_);enable-background:new ;" d="M244,154.4c-0.5-0.1-1.1-0.1-1.7-0.1 c-0.1,0.5-0.3,1-0.5,1.3c-0.1,0.1-0.2,0.2-0.2,0.3h4.5c-0.6-0.6-1.2-1.3-1.8-1.5C244.3,154.4,244.1,154.4,244,154.4z"></path> <g> <path style="fill:#CAA76B;" d="M258.6,153.9c1.1-0.3,2.5,0.1,3.4,0.4c0.8,0.6,2,0.6,2.8,0c0.5-0.4,0.7-1,0.6-1.6 c0,0.4-0.2,0.7-0.6,1c-0.2,0.2-0.5,0.3-0.8,0.4c0.1-0.1,0.2-0.1,0.3-0.2c0.4-0.4,0.6-0.9,0.5-1.3c0,0.3-0.2,0.6-0.4,0.9 c-0.6,0.5-1.4,0.6-2,0.3l-0.1-0.1c-0.1-0.1-0.2-0.2-0.2-0.3c0.7-0.1,1.3-0.3,1.9-0.6c1.3-0.8,2-2.2,2-3.8c-0.3,1-0.8,1.8-1.7,2.4 c-0.6,0.4-1.2,0.6-1.9,0.6c0.2-0.1,0.4-0.2,0.6-0.4c1-0.8,1.6-2,1.6-3.2c-0.2,0.8-0.7,1.5-1.4,2.1c-1.5,1.1-3.5,0.9-4.7-0.4 c-0.1-0.1-0.2-0.2-0.2-0.4c-1.2-2.1-0.9-4.7,0.7-6c-0.2,0.1-0.3,0.2-0.5,0.3c-0.3,0.2-0.5,0.4-0.7,0.6l0,0 c-1.5,1.5-3.4,2.7-5.6,1.7c-0.1-0.1-0.3-0.1-0.4-0.2c-1.5-1-2-3-1.2-4.7c0.4-0.8,1-1.4,1.7-1.8c-1.2,0.2-2.2,1-2.8,2.2 c-0.1,0.2-0.2,0.5-0.3,0.7c-0.1-0.7,0-1.4,0.2-2.1c0.4-1,1.1-1.7,1.9-2.1c-1.4,0.3-2.7,1.3-3.2,2.7c-0.1,0.3-0.2,0.6-0.3,1 c0-0.3-0.1-0.7-0.3-1c-0.6-1.4-1.8-2.4-3.2-2.7c0.9,0.4,1.6,1.2,1.9,2.1c0.3,0.7,0.3,1.4,0.2,2.1c-0.1-0.2-0.2-0.5-0.3-0.7 c-0.6-1.2-1.6-2-2.8-2.2c0.7,0.3,1.3,0.9,1.7,1.8c0.8,1.7,0.3,3.7-1.2,4.7c-0.1,0.1-0.3,0.1-0.4,0.2c-2.2,0.9-4.1-0.2-5.6-1.7l0,0 c-0.2-0.2-0.4-0.4-0.7-0.6c-0.2-0.1-0.3-0.2-0.5-0.3c1.6,1.4,1.9,3.9,0.7,6c-0.1,0.1-0.2,0.3-0.2,0.4c-1.2,1.3-3.2,1.6-4.7,0.4 c-0.7-0.5-1.2-1.3-1.4-2.1c0,1.2,0.6,2.5,1.6,3.2c0.2,0.2,0.4,0.3,0.7,0.4c-0.7,0-1.3-0.2-1.9-0.6c-0.8-0.5-1.4-1.4-1.7-2.4 c0.1,1.5,0.8,3,2,3.8c0.6,0.4,1.2,0.6,1.9,0.6c-0.1,0.1-0.2,0.2-0.3,0.3l-0.1,0.1c-0.6,0.4-1.5,0.3-2-0.3c-0.3-0.3-0.4-0.6-0.4-0.9 c-0.1,0.5,0.1,0.9,0.5,1.3c0.1,0.1,0.2,0.1,0.2,0.2c-0.3-0.1-0.5-0.2-0.8-0.4c-0.3-0.3-0.5-0.6-0.6-1c-0.1,0.6,0.1,1.1,0.6,1.6 c0.8,0.6,1.9,0.6,2.8,0c1-0.3,2.3-0.7,3.4-0.4c0.1,0,0.2,0.1,0.3,0.1c0.8,0.3,1.6,1.4,2.3,1.9c0,0,0.1,0,0.1,0.1 c0.5,0.5,1.1,0.5,1.6-0.1c0.1-0.1,0.2-0.2,0.2-0.3c0.2-0.3,0.4-0.8,0.5-1.3c0.6-0.1,1.1-0.1,1.7,0.1c0.1,0,0.2,0.1,0.3,0.1 c0.6,0.2,1.3,0.9,1.8,1.5c0.5,0.5,1,0.9,1.3,0.7c0.2-0.1,0.3-0.3,0.4-0.4c0.1,0.2,0.2,0.3,0.4,0.4c0.4,0.2,0.8-0.2,1.3-0.7 c0.6-0.6,1.2-1.3,1.8-1.5c0.1,0,0.2-0.1,0.3-0.1c0.5-0.1,1.1-0.1,1.7-0.1c0.1,0.5,0.3,1,0.5,1.3c0.1,0.1,0.2,0.2,0.2,0.3 c0.5,0.5,1,0.5,1.6,0.1c0,0,0.1,0,0.1-0.1c0.7-0.5,1.5-1.6,2.3-1.9C258.3,154,258.5,154,258.6,153.9z M238.4,153.6 c-1.5-0.4-2.9-0.2-4.1,0.2c0.1-0.2,0.2-0.3,0.2-0.5c1.3-0.1,2.7-0.8,3.6-2c0.1,0.8,0.2,1.6,0.5,2.4 C238.6,153.6,238.5,153.6,238.4,153.6z M256.6,153c-0.6,1.3-1.4,1.1-1.9,1s-1.3-1.2-1.3-2.2c0,0.8,0,1.5,0.1,2.1 c-0.8-0.1-1.8-0.1-2.7,0.1c-1.5,0.4-2.6,1-2.8,1.7c-0.2-0.6-1.4-1.3-2.8-1.7c-0.9-0.2-1.9-0.2-2.7-0.1c0.1-0.7,0.1-1.4,0.1-2.1 c0,1-0.8,2.1-1.3,2.2c-0.6,0.1-1.3,0.3-1.9-1c0-0.1-0.1-0.2-0.1-0.4c-0.2-0.6-0.4-1.3-0.5-2c0.8-1.4,1-3,0.6-4.4 c1.3,1.3,3.4,1.7,5.4,0.9c1.8-0.8,3-2.4,3.3-4.1c0.2,1.7,1.4,3.4,3.3,4.1c2,0.8,4.1,0.4,5.4-0.9c-0.4,1.4-0.2,3,0.6,4.4 c-0.1,0.7-0.2,1.3-0.5,2C256.7,152.7,256.7,152.9,256.6,153z M257.2,153.7c0.2-0.8,0.4-1.6,0.5-2.4c1,1.2,2.3,1.9,3.6,2 c0,0.2,0.1,0.3,0.2,0.5c-1.2-0.4-2.6-0.6-4.1-0.2C257.4,153.6,257.3,153.6,257.2,153.7z"></path> <path style="fill:#CAA76B;" d="M247.9,134.9c-10.7,0-19.3,8.7-19.3,19.3h38.7C267.3,143.6,258.6,134.9,247.9,134.9z M230.2,154.2 c0-9.8,8-17.8,17.8-17.8s17.8,8,17.8,17.8H230.2z"></path> <path style="fill:#CAA76B;" d="M247.9,129.1c-13.9,0-25.2,11.3-25.2,25.2h50.4C273.1,140.4,261.8,129.1,247.9,129.1z M224.8,154.3 c0-12.8,10.4-23.1,23.1-23.1c12.8,0,23.1,10.4,23.1,23.1H224.8z"></path> </g> <polygon style="fill:#9E4523;" points="305,165 190.3,165 189.2,160.2 306,160.2 "></polygon> <polygon style="fill:#9E532E;" points="306,154.2 189.2,154.2 190.2,156.9 189.2,160.4 306,160.4 305,156.9 "></polygon> <g> <path style="fill:#B1995A;" d="M256,216.5c0.2,0,0.3-0.1,0.5-0.1c0.9-0.3,1.6-1,1.7-1.7l20.5-7.3l8.2-3.9l-9,1.6l-21,5.7 c-0.5-0.6-1.4-0.8-2.4-0.5c-0.2,0.1-0.3,0.1-0.5,0.2c-0.7-0.5-1.7-0.6-2.7-0.3c-1.5,0.5-2.4,1.8-2,3c0.2,0.5,0.5,0.9,1,1.1 c-0.6,0.3-1,0.7-0.9,1.1c0.1,0.3,0.6,0.5,1.2,0.4c-0.2,0.4-0.2,0.9-0.1,1.3c0.4,1.2,1.9,1.7,3.4,1.3 C254.9,218,255.7,217.3,256,216.5z M256.4,216.1c-0.1,0-0.2,0.1-0.3,0.1c0-0.3,0-0.5-0.1-0.8c-0.2-0.6-0.7-1-1.3-1.2 c0.2-0.2,0.5-0.4,0.9-0.5c0.9-0.3,1.8,0,2,0.7C257.8,215,257.3,215.8,256.4,216.1z M253.7,213.9c0.2-0.1,0.3-0.2,0.4-0.4 c0.2,0,0.3,0.1,0.5,0.1c-0.2,0.1-0.3,0.2-0.4,0.4C254.1,214,253.9,214,253.7,213.9z M255.4,216.1c-0.5-0.1-0.9-0.4-1.1-0.8 c-0.1-0.2-0.1-0.5,0-0.7c0.5,0.2,0.8,0.5,1,0.9C255.4,215.8,255.4,216,255.4,216.1z M271.4,207.5l10.6-2.6l-10.2,4l-13.9,4.9 c-0.3-0.5-0.9-0.8-1.6-0.8c0.6-0.4,0.9-1,0.9-1.5L271.4,207.5z M254.6,210.7c0.9-0.3,1.8,0,2,0.7s-0.3,1.4-1.2,1.7 c-0.3,0.1-0.7,0.1-1,0.1c0.4-0.5,0.5-1.2,0.3-1.7c-0.1-0.2-0.2-0.5-0.4-0.7C254.4,210.8,254.5,210.7,254.6,210.7z M253.9,213 c-0.2-0.1-0.4-0.3-0.5-0.6c-0.1-0.4,0-0.9,0.4-1.2c0.1,0.1,0.2,0.3,0.3,0.5C254.2,212.1,254.1,212.6,253.9,213z M249.9,213 c-0.3-0.9,0.4-1.9,1.6-2.3c0.7-0.2,1.5-0.1,2,0.2c-0.5,0.5-0.8,1.1-0.6,1.7c0.1,0.3,0.3,0.6,0.6,0.8c-0.3,0.3-0.6,0.5-1,0.6 C251.4,214.3,250.2,213.9,249.9,213z M251.2,216.9c-0.2-0.5,0-1,0.3-1.4c0.2-0.1,0.4-0.3,0.5-0.5c0.2-0.2,0.5-0.3,0.8-0.4 c0.4-0.1,0.8-0.2,1.2-0.1c-0.2,0.3-0.2,0.7-0.1,1c0.2,0.6,0.8,0.9,1.4,1c-0.2,0.6-0.8,1.1-1.5,1.3 C252.6,218.2,251.5,217.8,251.2,216.9z"></path> <path style="fill:#B1995A;" d="M249.8,215.1c-0.3-0.8-0.8-1.3-1.5-1.7c1-0.5,1.5-1.8,1.1-3c-0.3-0.8-0.9-1.4-1.5-1.6l-5.6-12.1 l-3.3-3.5l-0.3,4.8l3,12.9c-0.5,0.6-0.6,1.5-0.3,2.3c0.4,1.3,1.7,2,2.9,1.6c-0.3,0.7-0.4,1.5-0.1,2.2c0.2,0.5,0.5,1,0.9,1.3 l-0.5,3.8l8-2.7l-2.6-2.6C250,216.2,250,215.6,249.8,215.1z M245.7,212.8C245.7,212.7,245.7,212.7,245.7,212.8 C245.7,212.7,245.7,212.7,245.7,212.8C245.7,212.7,245.7,212.7,245.7,212.8z M246.7,209.4c0.9-0.3,1.9,0.2,2.2,1.2 c0.3,1-0.1,2-1,2.3s-1.9-0.2-2.2-1.2C245.4,210.7,245.9,209.7,246.7,209.4z M239.5,198.4l0.2-3.1l2.1,2.3l3.3,8.3 c-0.5-0.3-1.2-0.4-1.8-0.2s-1.1,0.7-1.3,1.3L239.5,198.4z M243.5,206.2c0.9-0.3,1.9,0.2,2.2,1.2s-0.1,2-1,2.3s-1.9-0.2-2.2-1.2 C242.2,207.5,242.6,206.5,243.5,206.2z M241.9,213c-0.3-1,0.1-2,1-2.3c0.1,0,0.3-0.1,0.4-0.1c0.8,0,1.5,0.5,1.8,1.3 c0.3,1-0.1,2-1,2.3C243.2,214.6,242.2,214,241.9,213z M245.5,221.4l0.3-2.6c0.7,0.3,1.4,0.3,2.2,0.1c0.7-0.2,1.3-0.7,1.6-1.3 l1.8,1.8L245.5,221.4z"></path> </g> <ellipse transform="matrix(-0.3258 -0.9454 0.9454 -0.3258 123.1852 520.0096)" style="fill:#837442;" cx="247.002" cy="216.083" rx="2.8" ry="2.9"></ellipse> <ellipse transform="matrix(-0.3255 -0.9455 0.9455 -0.3255 123.1228 520)" style="fill:#A48F53;" cx="247.035" cy="216.084" rx="2.6" ry="2.7"></ellipse> <path style="fill:#B79F5D;" d="M248.1,215.7c0.2,0.6-0.1,1.3-0.7,1.5c-0.6,0.2-1.3-0.1-1.5-0.7c-0.2-0.6,0.1-1.3,0.8-1.5 S247.9,215.1,248.1,215.7z"></path> <g> <path style="fill:#231F20;" d="M266.8,184.1l1.9,1.2l-0.9,0.2l-2.6,4.3l0.3,0.7l-1.9-1.1l0.9-0.1l2.6-4.3L266.8,184.1z M268.8,185.6l-0.7,0.2l-2.5,4.2l0.2,1.2l-2.1-1.3v-0.2l2,1.2l-0.2-1l2.5-4.2l0.7-0.2L268.8,185.6z"></path> <path style="fill:#231F20;" d="M280.6,196.2l0.8,2.1l-0.8-0.4l-4.7,1.7l-0.3,0.7l-0.8-2.1l0.7,0.4l4.7-1.7L280.6,196.2z M281.2,198.6l-0.6-0.3L276,200l-0.6,1.1l-0.9-2.3l0.1-0.2l0.8,2.2l0.4-0.9l4.6-1.7l0.7,0.3L281.2,198.6z"></path> <path style="fill:#231F20;" d="M281.2,197.9l0.8,2.1l-0.8-0.4l-4.7,1.7l-0.3,0.7l-0.8-2.1l0.7,0.4l4.7-1.7L281.2,197.9z M281.8,200.4l-0.6-0.3l-4.6,1.7l-0.6,1.1l-0.9-2.3l0.1-0.2l0.8,2.2l0.4-0.9l4.6-1.7l0.7,0.3L281.8,200.4z"></path> <path style="fill:#231F20;" d="M278.2,219.9v-2.3l0.6,0.6h5l0.5-0.6v2.2l-0.6-0.7h-5L278.2,219.9z M278.4,217.4l0.5,0.5h4.9 l0.9-0.8v2.5l-0.1,0.1v-2.3l-0.7,0.7H279L278.4,217.4L278.4,217.4z"></path> <path style="fill:#231F20;" d="M278.2,218v-2.3l0.6,0.6h5l0.5-0.6v2.2l-0.6-0.7h-5L278.2,218z M278.4,215.5l0.5,0.5h4.9l0.9-0.8 v2.5l-0.1,0.1v-2.3l-0.7,0.7H279L278.4,215.5L278.4,215.5z"></path> <path style="fill:#231F20;" d="M278.2,215.8v-2.3l0.6,0.6h5l0.5-0.6v2.2l-0.6-0.7h-5L278.2,215.8z M278.4,213.3l0.5,0.5h4.9 l0.9-0.8v2.5l-0.1,0.1v-2.3l-0.7,0.7H279L278.4,213.3L278.4,213.3z"></path> <path style="fill:#231F20;" d="M282.7,230l-1.2,1.9l-0.2-0.9l-4.3-2.5l-0.7,0.3l1.1-1.9l0.1,0.9l4.3,2.5L282.7,230z M281.2,232 l-0.2-0.7l-4.2-2.5l-1.2,0.2l1.3-2.1h0.2l-1.2,2l1-0.2l4.3,2.5l0.2,0.7L281.2,232z"></path> <path style="fill:#231F20;" d="M279,236.5L279,236.5c-0.2-0.5,0-0.6-0.3-1s-0.7-0.9-1.4-1.6l-2.1-2.2l-0.6,0.1l0.9-1.4l0.2,0.7 l5,1.4l0.8-0.2l-0.9,1.5l-0.3-0.8l-4.5-1.3l0.3,0.3l4,1.1l0.2,0.6h-0.1l-0.2-0.5l-3.8-1.1l1.4,1.5c0.6,0.6,0.9,0.9,1.2,1.1 c0.3,0.2,0.8,0.4,1.1,0.3C279.8,235.1,279.2,236.1,279,236.5z M277,234l-2-2.1h-1l1-1.6h0.2l-0.9,1.5h0.8L277,234l0.6,0.5 c0.4,0.4,0.7,0.8,0.9,1.3C278.8,236.2,278.2,235.3,277,234z"></path> <path style="fill:#231F20;" d="M214.3,234.3l-1-2l0.9,0.3l4.4-2.2l0.2-0.8l1,2l-0.8-0.3l-4.4,2.2L214.3,234.3z M213.4,232l0.6,0.2 l4.3-2.2l0.4-1.1l1.1,2.2l-0.1,0.2l-1-2.1l-0.4,0.9l-4.4,2.2l-0.7-0.2L213.4,232z"></path> <path style="fill:#231F20;" d="M213.3,232.4l-1-2l0.9,0.3l4.4-2.2l0.2-0.8l1,2l-0.8-0.3l-4.4,2.2L213.3,232.4z M212.4,230l0.6,0.2 l4.3-2.2l0.4-1.1l1.1,2.2l-0.1,0.2l-1-2.1l-0.4,0.9l-4.4,2.2l-0.7-0.2L212.4,230z"></path> <path style="fill:#231F20;" d="M212.3,230.4l-1-2l0.9,0.3l4.4-2.2l0.2-0.8l1,2l-0.8-0.3l-4.5,2.2L212.3,230.4z M211.5,228.1 l0.7,0.2l4.3-2.2l0.4-1.1l1.1,2.2l-0.1,0.2l-1-2.1l-0.4,0.9l-4.4,2.2l-0.7-0.2L211.5,228.1z"></path> <path style="fill:#231F20;" d="M214.2,234.3L214.2,234.3c0.5,0,0.5,0.3,1,0.3s1.1-0.1,2.1-0.3l3-0.6l0.3-0.6l0.7,1.5l-0.7-0.2 l-3.9,3.4l-0.3,0.8l-0.8-1.6l0.8,0.2l3.5-3.1l-0.5,0.1l-3.1,2.7l-0.6-0.1l0.1-0.1l0.5,0.1l2.9-2.6l-2.1,0.4 c-0.8,0.2-1.3,0.2-1.5,0.4c-0.3,0.1-0.7,0.5-0.9,0.7C214.9,235.8,214.4,234.7,214.2,234.3z M217.4,234l2.9-0.5l0.5-0.9l0.8,1.7 l-0.1,0.1l-0.8-1.6l-0.4,0.7L217.4,234l-0.7,0.2c-0.6,0.1-1.1,0.1-1.6,0.1C214.6,234.4,215.6,234.3,217.4,234z"></path> <path style="fill:#231F20;" d="M225.9,247.3l-1.9-1.2l0.9-0.2l2.6-4.2l-0.2-0.7l1.9,1.2l-0.9,0.1l-2.7,4.2L225.9,247.3z M223.9,245.8l0.7-0.1l2.6-4.1l-0.2-1.2l2.1,1.3v0.2l-2-1.2l0.2,1l-2.6,4.2l-0.7,0.2L223.9,245.8z"></path> <path style="fill:#231F20;" d="M224.3,246.3l-1.9-1.2l0.9-0.2l2.6-4.2l-0.2-0.7l1.9,1.2l-0.9,0.1l-2.7,4.2L224.3,246.3z M222.3,244.8l0.7-0.1l2.6-4.1l-0.2-1.2l2.1,1.3v0.2l-2-1.2l0.2,1l-2.6,4.2l-0.7,0.2L222.3,244.8z"></path> <path style="fill:#231F20;" d="M226,247.5L226,247.5c0.5-0.2,0.6,0,1-0.3s0.9-0.6,1.7-1.3l2.3-2.1l-0.1-0.6l1.4,0.9l-0.7,0.2 l-1.5,4.9l0.1,0.8l-1.5-1l0.8-0.3l1.4-4.4l-0.4,0.3l-1.2,3.9l-0.6,0.2v-0.1l0.5-0.2l1.2-3.7l-1.6,1.4c-0.6,0.6-0.9,0.9-1.1,1.1 c-0.2,0.3-0.4,0.8-0.4,1.1C227.4,248.4,226.4,247.7,226,247.5z M228.6,245.6l2.2-2v-1l1.6,1v0.2l-1.5-0.9v0.8L228.6,245.6l-0.5,0.5 c-0.5,0.4-0.8,0.6-1.3,0.9C226.4,247.4,227.3,246.8,228.6,245.6z"></path> <path style="fill:#231F20;" d="M245.8,254.5h-2.3l0.6-0.6v-5l-0.6-0.5h2.2l-0.7,0.5v5L245.8,254.5z M243.3,254.3l0.5-0.5v-4.9 L243,248h2.5l0.1,0.1h-2.3l0.7,0.7v5L243.3,254.3L243.3,254.3z"></path> <path style="fill:#231F20;" d="M246,254.6L246,254.6c0.3-0.5,0.5-0.3,0.7-0.8s0.4-1,0.7-2l0.9-3l-0.4-0.5h1.7l-0.5,0.5l1.3,5 l0.6,0.6h-1.8l0.5-0.7l-1.2-4.5l-0.1,0.4l1.1,4l-0.4,0.5L249,254l0.3-0.4l-1-3.8l-0.6,2c-0.2,0.8-0.3,1.2-0.3,1.5s0.1,0.9,0.3,1.1 C247.7,254.6,246.5,254.6,246,254.6z M247.2,251.7l0.8-2.8l-0.6-0.9h1.9l0.1,0.1h-1.7l0.5,0.7L247.2,251.7l-0.1,0.7 c-0.2,0.6-0.4,1-0.6,1.5C246.3,254.3,246.8,253.3,247.2,251.7z"></path> <path style="fill:#231F20;" d="M263.4,248.8L263.4,248.8c0.1-0.5,0.3-0.5,0.3-1s0-1.1-0.2-2.1l-0.5-3l-0.6-0.3l1.5-0.7l-0.2,0.7 l3.3,3.9l0.8,0.3l-1.6,0.8l0.2-0.8l-3-3.5l0.1,0.5l2.7,3.1l-0.1,0.6l-0.1-0.1l0.1-0.5l-2.5-3l0.4,2.1c0.1,0.8,0.2,1.3,0.3,1.5 c0.1,0.3,0.5,0.8,0.7,0.9C264.9,248,263.8,248.6,263.4,248.8z M263.3,245.6l-0.5-2.9l-0.9-0.5l1.7-0.8l0.1,0.1l-1.6,0.7l0.7,0.4 L263.3,245.6l0.2,0.7c0.1,0.6,0.1,1.1,0.1,1.6C263.5,248.4,263.5,247.3,263.3,245.6z"></path> <path style="fill:#231F20;" d="M214.8,197.5l0.4,0.8l1.5,1.6h3.1l0.8-0.3l-0.5,1.4l-0.4-0.6h-1.9l1.3,1.4l1.1-0.1l-0.6,1.5h-0.1 l0.5-1.4l-1,0.1l-1.4-1.5h-0.2l1.5,1.6l0.8-0.1l-0.5,1.3l-0.4-0.9l-1.8-1.9h-2.6l-0.8,0.3l0.5-1.5l0.4,0.6h1.9l-0.2-0.2h-1.5 l-0.4-0.5h0.1l0.3,0.4h1.4l-1-1.1l-0.7,0.1L214.8,197.5z M215.2,197.6l0.3,0.7l1.3,1.4h2.9l1.3-0.3l-0.6,1.7h-0.1l0.6-1.6l-1.1,0.2 h-3l-1.4-1.5l-0.3-0.7L215.2,197.6z"></path> <path style="fill:#231F20;" d="M225.3,185.9v0.9l0.5,2.1l2.7,1.5l0.8,0.1l-1.2,1l-0.1-0.7l-1.7-0.9l0.5,1.9l1,0.5l-1.2,1l-0.1-0.1 l1.1-1l-0.9-0.4l-0.5-2l-0.2-0.1l0.6,2.1l0.7,0.3l-1,0.9l0.1-1l-0.7-2.5l-2.3-1.3l-0.8-0.1l1.2-1l0.1,0.7l1.6,0.9l-0.1-0.2 l-1.3-0.7l-0.1-0.6h0.1l0.1,0.5l1.2,0.7L225,187l-0.7-0.2L225.3,185.9z M225.6,186.1l-0.1,0.8l0.5,1.9l2.5,1.4l1.3,0.4l-1.4,1.2 l-0.1-0.1l1.3-1.1l-1.1-0.3l-2.6-1.4l-0.5-2L225.6,186.1L225.6,186.1z"></path> <path style="fill:#231F20;" d="M225.4,185.9l1.7-1.5l-0.1,0.9l3.2,3.8h0.8l-1.7,1.4l0.1-0.8l-3.2-3.8L225.4,185.9z M227.4,184.5 l-0.1,0.7l3.2,3.7l1.2,0.2l-1.9,1.6h-0.2l1.8-1.5l-1-0.1l-3.2-3.8l0.1-0.8L227.4,184.5z"></path> <path style="fill:#231F20;" d="M246.5,179.3l-0.6,0.7l-0.9,1.9l1.1,2.9l0.5,0.6h-1.5l0.4-0.6l-0.7-1.8l-0.8,1.7l0.5,1h-1.6v-0.1 h1.5l-0.4-0.9l0.9-1.9l-0.1-0.2l-1,2l0.4,0.7h-1.3l0.7-0.7l1.1-2.3l-0.9-2.4l-0.6-0.6h1.5l-0.4,0.5l0.7,1.7l0.1-0.2l-0.5-1.4 l0.3-0.5l0.1,0.1l-0.3,0.4l0.5,1.3l0.6-1.3l-0.4-0.6L246.5,179.3L246.5,179.3z M246.6,179.7l-0.6,0.5l-0.8,1.7l1,2.7l0.7,1.1h-1.8 l-0.1-0.1h1.7l-0.6-0.9l-1-2.8l0.9-1.8L246.6,179.7L246.6,179.7z"></path> <path style="fill:#231F20;" d="M246.6,179.3h2.3l-0.6,0.6v5l0.6,0.5h-2.2l0.7-0.5v-5L246.6,179.3z M249,179.6l-0.5,0.5v4.9l0.8,0.9 h-2.5l-0.1-0.1h2.3l-0.7-0.7v-4.9L249,179.6L249,179.6z"></path> <path style="fill:#231F20;" d="M249.3,179.3h2.3l-0.6,0.6v5l0.6,0.5h-2.2l0.7-0.5v-5L249.3,179.3z M251.7,179.6l-0.5,0.5v4.9 l0.8,0.9h-2.5l-0.1-0.1h2.3l-0.7-0.7v-4.9L251.7,179.6L251.7,179.6z"></path> <path style="fill:#231F20;" d="M209.5,213l0.7,0.6l2,0.8l2.8-1.3l0.6-0.5l0.1,1.5l-0.6-0.3l-1.7,0.8l1.8,0.7l1-0.5l0.1,1.6 l-0.1,0.1l-0.1-1.5l-0.9,0.5l-1.9-0.8l-0.2,0.1l2,0.8l0.7-0.4l0.1,1.3l-0.8-0.6l-2.4-1l-2.4,1.1l-0.6,0.6l-0.1-1.5l0.6,0.3l1.7-0.8 l-0.2-0.1l-1.4,0.6l-0.5-0.3l0.1-0.1l0.4,0.3l1.3-0.6l-1.4-0.6l-0.6,0.4L209.5,213z M209.8,212.9l0.6,0.5l1.8,0.7l2.6-1.2l1.1-0.8 l0.1,1.8l-0.1,0.1l-0.1-1.7l-0.9,0.7l-2.7,1.2l-1.9-0.8L209.8,212.9L209.8,212.9z"></path> <path style="fill:#231F20;" d="M209.9,219.9l-0.1-2.3l0.7,0.6l5-0.3l0.5-0.6l0.1,2.2l-0.6-0.6l-5,0.3L209.9,219.9z M210,217.4 l0.5,0.5l4.9-0.3l0.8-0.9l0.2,2.5l-0.1,0.1l-0.1-2.3l-0.7,0.7l-4.9,0.3L210,217.4L210,217.4z"></path> </g> <linearGradient id="SVGID_6_" gradientUnits="userSpaceOnUse" x1="247.5" y1="439.44" x2="247.5" y2="454.69" gradientTransform="matrix(1 0 0 -1 0 498.2)"> <stop offset="0" style="stop-color:#623126"></stop> <stop offset="1" style="stop-color:#310C00"></stop> </linearGradient> <ellipse style="fill:url(#SVGID_6_);" cx="247.5" cy="51.1" rx="6.6" ry="7.6"></ellipse> <linearGradient id="SVGID_7_" gradientUnits="userSpaceOnUse" x1="247.5" y1="441.52" x2="247.5" y2="452.89" gradientTransform="matrix(1 0 0 -1 0 498.2)"> <stop offset="0" style="stop-color:#471F13"></stop> <stop offset="1" style="stop-color:#310C00"></stop> </linearGradient> <ellipse style="fill:url(#SVGID_7_);" cx="247.5" cy="51" rx="5.7" ry="5.7"></ellipse> <path style="fill:#CAA76B;" d="M251.5,91.3c-0.3-2.1-0.2-2.8-2.9-2.8c-1.6,0-3.2-0.1-2.9,2.7l0.7,0.1c0,0,1.1-0.2,2.4-0.2 c1.2,0,2.3,0.2,2.3,0.2L251.5,91.3z"></path> </g></svg>