<svg height="200px" width="200px" version="1.1" id="Layer_1" xmlns="http://www.w3.org/2000/svg" xmlns:xlink="http://www.w3.org/1999/xlink" viewBox="0 0 511.678 511.678" xml:space="preserve" fill="#000000"><g id="SVGRepo_bgCarrier" stroke-width="0"></g><g id="SVGRepo_tracerCarrier" stroke-linecap="round" stroke-linejoin="round"></g><g id="SVGRepo_iconCarrier"> <path style="fill:#ff963a;" d="M287.815,463.615c-2.842,0-5.668-1.141-7.776-3.373L110.257,279.015 c-4.029-4.294-3.81-11.04,0.484-15.054c4.294-4.028,11.04-3.81,15.068,0.484L295.59,445.657c4.029,4.295,3.811,11.04-0.484,15.069 C293.046,462.662,290.439,463.615,287.815,463.615z"></path> <path style="fill:#ff963a;" d="M223.856,463.615c-2.607,0-5.231-0.953-7.276-2.889c-4.31-4.029-4.528-10.774-0.5-15.069 l169.782-181.212c4.028-4.294,10.774-4.513,15.068-0.484c4.294,4.014,4.528,10.76,0.499,15.054L231.632,460.242 C229.54,462.475,226.698,463.615,223.856,463.615z"></path> <path style="fill:#8a533d;" d="M511.671,209.138L511.671,209.138v-11.321h-5.402v1.108c-24.688-12.742-165.082,8.947-250.433,8.947 c-83.493,0-219.672-20.768-248.653-9.728H0v11.555h0.016c0,29.325,58.697,104.589,255.82,104.589 C454.239,314.289,512.421,238.057,511.671,209.138z"></path> <path id="SVGCleanerId_0" style="fill:#8a533d;" d="M508.595,189.9c-16.13-16.083-164.129,7.308-252.759,7.308 c-88.615,0-236.629-23.391-252.744-7.308c-16.537,16.489,28.685,113.723,252.744,113.723 C479.91,303.623,525.132,206.389,508.595,189.9z"></path> <g> <path id="SVGCleanerId_0_1_" style="fill:#8a533d;" d="M508.595,189.9c-16.13-16.083-164.129,7.308-252.759,7.308 c-88.615,0-236.629-23.391-252.744-7.308c-16.537,16.489,28.685,113.723,252.744,113.723 C479.91,303.623,525.132,206.389,508.595,189.9z"></path> </g> <path style="fill:#8a533d;" d="M305.663,48.194c-23.97,4.56-43.332,37.055-49.828,37.055c-6.48,0-25.858-32.495-49.812-37.055 c-30.262-5.777-88.756,180.853-88.756,180.853s63.1,21.361,138.567,21.361c75.466,0,138.583-21.361,138.583-21.361 S335.925,42.417,305.663,48.194z"></path> <path style="fill:#ff963a;" d="M255.836,229.094c-61.304,0-114.474-14.1-132.259-19.394c-3.982,11.883-6.309,19.347-6.309,19.347 s63.1,21.361,138.567,21.361c75.466,0,138.583-21.361,138.583-21.361s-2.343-7.464-6.324-19.347 C370.324,214.994,317.155,229.094,255.836,229.094z"></path> <g style="opacity:0.1;"> <path style="fill:#FFFFFF;" d="M206.024,69.508c23.953,4.56,43.332,37.055,49.812,37.055c6.496,0,25.858-32.495,49.828-37.055 c24.219-4.606,66.504,113.927,82.432,161.506c4.105-1.218,6.324-1.967,6.324-1.967s-58.494-186.63-88.756-180.853 c-23.97,4.56-43.332,37.055-49.828,37.055c-6.48,0-25.858-32.495-49.812-37.055c-30.262-5.777-88.756,180.853-88.756,180.853 s2.217,0.75,6.309,1.967C139.52,183.435,181.805,64.902,206.024,69.508z"></path> </g> </g></svg>