<?xml version="1.0" encoding="iso-8859-1"?>
<!-- Uploaded to: SVG Repo, www.svgrepo.com, Generator: SVG Repo Mixer Tools -->
<svg height="800px" width="800px" version="1.1" id="Layer_1" xmlns="http://www.w3.org/2000/svg" xmlns:xlink="http://www.w3.org/1999/xlink" 
	 viewBox="0 0 511.98 511.98" xml:space="preserve">
<g>
	<path style="fill:#656D78;" d="M213.32,314.639c-2.719,0-5.453-1.031-7.531-3.125l-21.342-21.312
		c-4.156-4.188-4.156-10.938,0-15.094c4.171-4.163,10.921-4.163,15.093,0l21.327,21.343c4.172,4.156,4.172,10.906,0,15.062
		C218.788,313.608,216.053,314.639,213.32,314.639z"/>
	<path style="fill:#656D78;" d="M140.885,158.622c-2.812,0-5.609-1.094-7.719-3.297l-20.983-21.999H95.996
		c-5.89,0-10.671-4.781-10.671-10.671c0-5.891,4.781-10.656,10.671-10.656h20.75c2.921,0,5.703,1.188,7.718,3.297l24.14,25.296
		c4.062,4.266,3.906,11.016-0.344,15.093C146.182,157.654,143.541,158.622,140.885,158.622z"/>
</g>
<g>
	<path style="fill:#8893A0;" d="M479.981,122.656c-5.891,0-10.672-4.766-10.672-10.656v-10.672c0-5.89,4.781-10.671,10.672-10.671
		c5.89,0,10.671,4.781,10.671,10.671V112C490.652,117.89,485.871,122.656,479.981,122.656z"/>
	<path style="fill:#8893A0;" d="M425.92,150.779c-1.265-3.25-4.03-5.672-7.421-6.484l-97.996-23.827
		c-3.594-0.859-7.374,0.188-9.999,2.766c-2.641,2.593-3.734,6.358-2.922,9.968l12.671,55.811c1.109,4.859,5.422,8.312,10.406,8.312
		h63.997c3.562,0,6.891-1.78,8.875-4.749l21.327-31.999C426.795,157.669,427.185,154.012,425.92,150.779z"/>
</g>
<path style="fill:#AAB2BC;" d="M213.32,346.638c-21.39,0-39.311-11-51.811-31.843c-8.843-14.75-11.843-29.437-11.968-30.062
	c-1.156-5.781,2.578-11.375,8.359-12.531c5.781-1.163,11.39,2.594,12.546,8.344c0.031,0.094,2.547,12.125,9.625,23.718
	c8.531,13.969,19.718,21.062,33.249,21.062c13.687,0,24.968-7.25,33.53-21.5c6.844-11.437,9.328-23.155,9.344-23.28
	c1.156-5.75,6.78-9.507,12.562-8.344c5.766,1.156,9.516,6.75,8.359,12.531c-0.125,0.625-3.125,15.312-11.984,30.062
	C252.631,335.638,234.725,346.638,213.32,346.638z"/>
<path style="fill:#8893A0;" d="M233.381,106.922c-1.859-3.453-5.468-5.594-9.39-5.594c-0.953,0-23.765,0.125-49.436,10.812
	c-34.577,14.405-57.919,41.077-67.529,77.106c-0.984,3.641,0.047,7.53,2.688,10.218c2.031,2.062,4.781,3.188,7.609,3.188
	c0.859,0,1.718-0.094,2.562-0.312l64.67-15.999c2.609-0.641,4.875-2.25,6.343-4.5l42.014-63.997
	C235.053,114.562,235.24,110.375,233.381,106.922z"/>
<g>
	<path style="fill:#AAB2BC;" d="M501.308,101.327H330.659c-5.891,0-10.672,4.766-10.672,10.672v42.654
		c0,5.891,4.781,10.672,10.672,10.672h170.649c5.891,0,10.672-4.781,10.672-10.672V112
		C511.98,106.093,507.199,101.327,501.308,101.327z"/>
	<path style="fill:#AAB2BC;" d="M309.316,293.328H112.183c-4.031,0-7.718-2.28-9.531-5.874l-37.514-74.677
		c-1.359-2.703-1.516-5.859-0.406-8.672c1.109-2.828,3.359-5.047,6.188-6.109l85.325-31.998c2.578-0.953,5.421-0.891,7.953,0.188
		l149.322,63.997c3.922,1.688,6.469,5.531,6.469,9.812v42.646C319.987,288.548,315.206,293.328,309.316,293.328z"/>
</g>
<path style="fill:#965353;" d="M170.603,281.578c-3.031-29.913-20.593-54.021-50.78-69.724
	c-21.921-11.391-42.842-14.312-43.732-14.438c-3.047-0.406-6.125,0.516-8.453,2.531c-2.312,2.031-3.641,4.953-3.641,8.047v28.53
	c-4.984,7.031-17.874,26.03-30.874,52.021C11.14,332.513,0,373.574,0,410.635c0,5.906,4.781,10.688,10.671,10.688H115.98
	c5.046,0,9.39-3.531,10.437-8.469l22.343-105.339l18.468-17.03C169.697,288.234,170.947,284.923,170.603,281.578z"/>
<path style="fill:#CCD1D9;" d="M330.659,101.327H223.991c-41.17,0-74.669,33.499-74.669,74.67c0,41.153,33.499,74.652,74.669,74.652
	h85.325c2.828,0,5.546-1.125,7.546-3.125l21.328-21.327c2-2,3.125-4.719,3.125-7.547V112
	C341.315,106.093,336.55,101.327,330.659,101.327z"/>
<path style="fill:#AAB2BC;" d="M277.317,154.654c-11.781,0-21.327,9.562-21.327,21.344c0,11.78,9.546,21.326,21.327,21.326h63.998
	v-42.67H277.317z"/>
<g>
	<path style="fill:#CCD1D9;" d="M85.325,357.326c0,5.875-4.766,10.656-10.656,10.656c-5.891,0-10.672-4.781-10.672-10.656
		c0-5.906,4.781-10.687,10.672-10.687C80.559,346.638,85.325,351.419,85.325,357.326z"/>
	<path style="fill:#CCD1D9;" d="M106.667,282.641c0,5.906-4.781,10.687-10.671,10.687s-10.671-4.78-10.671-10.687
		c0-5.875,4.781-10.656,10.671-10.656S106.667,276.766,106.667,282.641z"/>
</g>
</svg>