<svg viewBox="0 0 64 64" id="Layer_1" version="1.1" xml:space="preserve" xmlns="http://www.w3.org/2000/svg" xmlns:xlink="http://www.w3.org/1999/xlink" fill="#000000"><g id="SVGRepo_bgCarrier" stroke-width="0"></g><g id="SVGRepo_tracerCarrier" stroke-linecap="round" stroke-linejoin="round"></g><g id="SVGRepo_iconCarrier"> <style type="text/css"> .st0{fill:#B4E6DD;} .st1{fill:#80D4C4;} .st2{fill:#D2F0EA;} .st3{fill:#FFFFFF;} .st4{fill:#FBD872;} .st5{fill:#DB7767;} .st6{fill:#F38E7A;} .st7{fill:#F6AF62;} .st8{fill:#32A48E;} .st9{fill:#A38FD8;} .st10{fill:#7C64BD;} .st11{fill:#EAA157;} .st12{fill:#9681CF;} .st13{fill:#F9C46A;} .st14{fill:#CE6B61;} </style> <g> <g> <rect class="st7" height="3" width="44" x="10" y="21.02"></rect> </g> <g> <rect class="st7" height="3" width="44" x="10" y="39.98"></rect> </g> <g> <rect class="st4" height="44" width="3" x="15.51" y="10"></rect> </g> <g> <rect class="st4" height="44" width="3" x="23.01" y="10"></rect> </g> <g> <rect class="st4" height="44" width="3" x="30.5" y="10"></rect> </g> <g> <rect class="st4" height="44" width="3" x="37.99" y="10"></rect> </g> <g> <rect class="st4" height="16.85" width="3" x="45.49" y="10"></rect> </g> <g> <rect class="st4" height="17.31" width="3" x="45.49" y="36.69"></rect> </g> <path class="st4" d="M56,11.02v-3H8v3h0.02v41.96H8v3h48v-3h-0.02V11.02H56z M52.98,52.98H11.02V11.02h41.96V52.98z"></path> <rect class="st4" height="11.82" width="11.99" x="40.99" y="26.09"></rect> <path class="st3" d="M49.25,30.75c0-1.25-1.01-2.26-2.26-2.26c-1.25,0-2.26,1.01-2.26,2.26c0,0.88,0.51,1.64,1.25,2.01v1.74 c0,0.56,0.45,1.01,1.01,1.01c0.56,0,1.01-0.45,1.01-1.01v-1.74C48.74,32.39,49.25,31.63,49.25,30.75z"></path> </g> </g></svg>