<svg xmlns="http://www.w3.org/2000/svg" xmlns:xlink="http://www.w3.org/1999/xlink" version="1.1" id="Layer_1" viewBox="0 0 437.68 437.68" xml:space="preserve" fill="#000000"><g id="SVGRepo_bgCarrier" stroke-width="0"></g><g id="SVGRepo_tracerCarrier" stroke-linecap="round" stroke-linejoin="round"></g><g id="SVGRepo_iconCarrier"> <g> <path style="fill:#EAB96C;" d="M437.68,175.41c0,14.02-11.37,25.38-25.39,25.38c-5.35,0-10.32-1.66-14.41-4.49 c-17.49,24.25-40.29,52.4-67.74,81.06c4.49,37.68,7.02,71.76,7.91,100.09h0.35c14.02,0,25.38,11.36,25.38,25.38 c0,14.02-11.36,25.38-25.38,25.38s-25.38-11.36-25.38-25.38c0-3.36,0.65-6.56,1.84-9.5c-29.09-11.38-60.52-22.79-96.02-38.43 c-16.03,7.06-31.21,13.25-45.73,18.97c-17.67,6.96-34.34,13.21-50.3,19.46c1.19,2.94,1.85,6.14,1.85,9.5 c0,14.02-11.37,25.38-25.39,25.38c-14.01,0-25.38-11.36-25.38-25.38c0-14.02,11.37-25.38,25.38-25.38h0.36 c0.88-28.33,3.41-62.41,7.91-100.09C80.08,248.7,57.28,220.55,39.8,196.3c-4.1,2.83-9.06,4.49-14.42,4.49 C11.36,200.79,0,189.43,0,175.41s11.36-25.39,25.38-25.39c11.15,0,20.62,7.2,24.03,17.2c26.34-7.83,61.47-15.47,99.26-22.16 c18.4-34.98,37.6-66.96,54.46-90.27c-5.89-4.65-9.68-11.85-9.68-19.94c0-14.02,11.37-25.38,25.39-25.38s25.38,11.36,25.38,25.38 c0,8.09-3.79,15.29-9.68,19.94c11.62,16.07,24.36,36.25,37.18,58.7c5.78,10.12,11.57,20.7,17.29,31.57 c37.79,6.69,72.91,14.33,99.26,22.16c3.41-10,12.87-17.2,24.02-17.2C426.31,150.02,437.68,161.39,437.68,175.41z"></path> <path style="fill:#FCCC8B;" d="M437.68,175.41c0,14.02-11.37,25.38-25.39,25.38c-5.35,0-10.32-1.66-14.41-4.49 c-17.49,24.25-40.29,52.4-67.74,81.06c4.49,37.68,7.02,71.76,7.91,100.09h0.35c14.02,0,25.38,11.36,25.38,25.38 c0,14.02-11.36,25.38-25.38,25.38s-25.38-11.36-25.38-25.38c0-3.36,0.65-6.56,1.84-9.5c-29.09-11.38-60.52-22.79-96.02-38.43 c-16.03,7.06-31.21,13.25-45.73,18.97l98.61-260.38c5.78,10.12,11.57,20.7,17.29,31.57c37.79,6.69,72.91,14.33,99.26,22.16 c3.41-10,12.87-17.2,24.02-17.2C426.31,150.02,437.68,161.39,437.68,175.41z"></path> <path style="fill:#D8A664;" d="M301.26,249.68l-13.08,13.65l2.24,18.76c2.51,21.05,4.47,41.73,5.83,61.19 c-19.42-7.49-39.55-15.41-61.29-24.99l-16.12-7.1l-16.13,7.1c-3.45,1.52-6.86,3-10.23,4.44c-17.88,7.64-34.72,14.25-51.05,20.55 c1.35-19.47,3.31-40.14,5.82-61.19l2.24-18.76l-13.07-13.65c-15.94-16.63-31.35-34.3-45.46-52.07c18.76-4.45,40.61-8.9,64.68-13.16 l19.3-3.42l9.13-17.35c11.68-22.2,23.59-42.94,34.77-60.61c11.01,17.41,22.74,37.8,34.24,59.63c0.17,0.32,0.35,0.65,0.52,0.98 l9.13,17.35l19.31,3.42c24.06,4.26,45.91,8.71,64.67,13.16C332.6,215.39,317.19,233.05,301.26,249.68z"></path> <path style="fill:#EAB96C;" d="M301.26,249.68l-13.08,13.65l2.24,18.76c2.51,21.05,4.47,41.73,5.83,61.19 c-19.42-7.49-39.55-15.41-61.29-24.99l-16.12-7.1l-16.13,7.1c-3.45,1.52-6.86,3-10.23,4.44l60.6-160.03 c0.17,0.32,0.35,0.65,0.52,0.98l9.13,17.35l19.31,3.42c24.06,4.26,45.91,8.71,64.67,13.16 C332.6,215.39,317.19,233.05,301.26,249.68z"></path> <path style="fill:#D8A664;" d="M265.94,238.27c0,25.97-21.13,47.1-47.1,47.1c-4.02,0-7.93-0.51-11.66-1.46 c-20.36-5.2-35.45-23.69-35.45-45.64c0-25.98,21.13-47.11,47.11-47.11c7.73,0,15.04,1.88,21.49,5.2 C255.53,204.18,265.94,220.03,265.94,238.27z"></path> <path style="fill:#EAB96C;" d="M265.94,238.27c0,25.97-21.13,47.1-47.1,47.1c-4.02,0-7.93-0.51-11.66-1.46l33.15-87.55 C255.53,204.18,265.94,220.03,265.94,238.27z"></path> <path style="fill:#FCCC8B;" d="M218.837,292.871c-30.11,0-54.606-24.496-54.606-54.606s24.497-54.606,54.606-54.606 c30.109,0,54.605,24.496,54.605,54.606S248.947,292.871,218.837,292.871z M218.837,198.659c-21.839,0-39.606,17.767-39.606,39.606 s17.768,39.606,39.606,39.606s39.605-17.767,39.605-39.606S240.676,198.659,218.837,198.659z"></path> </g> </g></svg>